<svg width="14" height="13" viewBox="0 0 14 13" fill="none" xmlns="http://www.w3.org/2000/svg">
<path d="M3.66352 4.90546C3.66352 5.07008 3.68081 5.20356 3.71108 5.30145C3.74567 5.39934 3.7889 5.50612 3.84943 5.62181C3.87105 5.6574 3.8797 5.693 3.8797 5.72414C3.8797 5.76864 3.85376 5.81313 3.79755 5.85763L3.52516 6.0445C3.48625 6.0712 3.44733 6.08455 3.41274 6.08455C3.36951 6.08455 3.32627 6.0623 3.28303 6.02225C3.2225 5.95551 3.17062 5.88432 3.12738 5.81313C3.08415 5.73749 3.04091 5.65295 2.99335 5.55062C2.6561 5.95996 2.23238 6.16463 1.72219 6.16463C1.359 6.16463 1.06932 6.05785 0.857457 5.84428C0.645598 5.63071 0.537506 5.34595 0.537506 4.98999C0.537506 4.6118 0.667216 4.30479 0.93096 4.07342C1.1947 3.84205 1.54492 3.72637 1.99026 3.72637C2.13726 3.72637 2.28859 3.73971 2.44857 3.76196C2.60854 3.78421 2.77284 3.8198 2.94579 3.85985V3.53504C2.94579 3.19689 2.87661 2.96107 2.74258 2.82314C2.60422 2.68521 2.37074 2.61847 2.03782 2.61847C1.88649 2.61847 1.73084 2.63626 1.57086 2.67631C1.41089 2.71635 1.25523 2.7653 1.10391 2.82759C1.03473 2.85873 0.982844 2.87653 0.952578 2.88543C0.922312 2.89433 0.900694 2.89878 0.883399 2.89878C0.822868 2.89878 0.792602 2.85428 0.792602 2.76085V2.54283C0.792602 2.47164 0.80125 2.41824 0.822868 2.3871C0.844486 2.35595 0.883399 2.32481 0.943931 2.29366C1.09526 2.21357 1.27685 2.14683 1.48871 2.09344C1.70057 2.0356 1.9254 2.0089 2.1632 2.0089C2.67772 2.0089 3.05388 2.12903 3.29601 2.3693C3.53381 2.60957 3.65487 2.97442 3.65487 3.46385V4.90546H3.66352ZM1.90811 5.58176C2.05079 5.58176 2.19779 5.55507 2.35345 5.50167C2.5091 5.44828 2.64746 5.35039 2.76419 5.21691C2.83337 5.13237 2.88526 5.03894 2.9112 4.93215C2.93714 4.82537 2.95444 4.69633 2.95444 4.54505V4.35818C2.82905 4.32703 2.69502 4.30034 2.55666 4.28254C2.4183 4.26474 2.28427 4.25584 2.15023 4.25584C1.86055 4.25584 1.64869 4.31369 1.50601 4.43382C1.36333 4.55395 1.29415 4.72303 1.29415 4.9455C1.29415 5.15462 1.34603 5.31035 1.45412 5.41714C1.55789 5.52837 1.70922 5.58176 1.90811 5.58176ZM5.38001 6.0623C5.30219 6.0623 5.2503 6.04895 5.21571 6.0178C5.18112 5.99111 5.15086 5.92882 5.12492 5.84428L4.10885 2.40489C4.08291 2.31591 4.06994 2.25806 4.06994 2.22692C4.06994 2.15573 4.10453 2.11568 4.17371 2.11568H4.59743C4.67958 2.11568 4.73579 2.12903 4.76605 2.16018C4.80064 2.18687 4.82658 2.24917 4.85253 2.3337L5.5789 5.2792L6.25339 2.3337C6.27501 2.24472 6.30095 2.18687 6.33554 2.16018C6.37013 2.13348 6.43066 2.11568 6.50849 2.11568H6.85438C6.93653 2.11568 6.99274 2.12903 7.02733 2.16018C7.06192 2.18687 7.09218 2.24917 7.10948 2.3337L7.79262 5.3148L8.54061 2.3337C8.56655 2.24472 8.59682 2.18687 8.62709 2.16018C8.66168 2.13348 8.71788 2.11568 8.79571 2.11568H9.19781C9.26699 2.11568 9.3059 2.15128 9.3059 2.22692C9.3059 2.24917 9.30158 2.27141 9.29725 2.29811C9.29293 2.32481 9.28428 2.3604 9.26699 2.40934L8.22498 5.84873C8.19904 5.93772 8.16878 5.99556 8.13419 6.02225C8.0996 6.04895 8.04339 6.06675 7.96989 6.06675H7.59805C7.5159 6.06675 7.4597 6.0534 7.42511 6.02225C7.39052 5.99111 7.36025 5.93327 7.34296 5.84428L6.67279 2.97442L6.00694 5.83983C5.98533 5.92882 5.95938 5.98666 5.92479 6.0178C5.89021 6.04895 5.82967 6.0623 5.75185 6.0623H5.38001ZM10.9359 6.18243C10.7111 6.18243 10.4863 6.15574 10.2701 6.10234C10.0539 6.04895 9.88527 5.99111 9.77286 5.92437C9.70368 5.88432 9.65612 5.83983 9.63882 5.79978C9.62153 5.75974 9.61288 5.71525 9.61288 5.6752V5.44828C9.61288 5.35484 9.64747 5.31035 9.71233 5.31035C9.73827 5.31035 9.76421 5.3148 9.79015 5.3237C9.81609 5.3326 9.85501 5.35039 9.89824 5.36819C10.0452 5.43493 10.2052 5.48833 10.3738 5.52392C10.5468 5.55952 10.7154 5.57731 10.8884 5.57731C11.1608 5.57731 11.3726 5.52837 11.5196 5.43048C11.6666 5.3326 11.7444 5.19022 11.7444 5.00779C11.7444 4.88321 11.7055 4.78087 11.6277 4.69633C11.5499 4.6118 11.4029 4.53616 11.191 4.46497L10.5641 4.26474C10.2485 4.16241 10.015 4.01113 9.8723 3.8109C9.72962 3.61513 9.65612 3.39711 9.65612 3.16574C9.65612 2.97887 9.69503 2.81424 9.77286 2.67186C9.85068 2.52948 9.95445 2.4049 10.0842 2.30701C10.2139 2.20467 10.3609 2.12903 10.5338 2.07564C10.7068 2.02225 10.8884 2 11.0786 2C11.1737 2 11.2732 2.00445 11.3683 2.0178C11.4677 2.03115 11.5585 2.04894 11.6493 2.06674C11.7358 2.08899 11.818 2.11123 11.8958 2.13793C11.9736 2.16463 12.0341 2.19132 12.0774 2.21802C12.1379 2.25362 12.1811 2.28921 12.2071 2.32926C12.233 2.36485 12.246 2.41379 12.246 2.47609V2.68521C12.246 2.77864 12.2114 2.82759 12.1466 2.82759C12.112 2.82759 12.0558 2.80979 11.9823 2.77419C11.7358 2.65851 11.4591 2.60067 11.1521 2.60067C10.9057 2.60067 10.7111 2.64071 10.5771 2.72525C10.443 2.80979 10.3738 2.93882 10.3738 3.12125C10.3738 3.24583 10.4171 3.35262 10.5036 3.43715C10.59 3.52169 10.75 3.60623 10.9792 3.68187L11.5931 3.88209C11.9044 3.98443 12.1293 4.12681 12.2633 4.30924C12.3973 4.49166 12.4622 4.70078 12.4622 4.93215C12.4622 5.12348 12.4233 5.297 12.3498 5.44828C12.2719 5.59956 12.1682 5.73304 12.0341 5.83983C11.9001 5.95106 11.7401 6.03115 11.5542 6.08899C11.3596 6.15129 11.1564 6.18243 10.9359 6.18243Z" fill="#252F3E"/>
<path fill-rule="evenodd" clip-rule="evenodd" d="M11.7531 8.53985C10.3306 9.62105 8.2639 10.195 6.48688 10.195C3.99645 10.195 1.75247 9.2473 0.0575919 7.67221C-0.0764416 7.54763 0.0446209 7.37855 0.204596 7.47644C2.03783 8.57099 4.29911 9.23395 6.63821 9.23395C8.21634 9.23395 9.95013 8.8958 11.5456 8.20169C11.7834 8.09046 11.9866 8.36187 11.7531 8.53985Z" fill="#FF9900"/>
<path fill-rule="evenodd" clip-rule="evenodd" d="M12.6381 7.84574C12.4565 7.60547 11.4361 7.73005 10.9735 7.7879C10.8352 7.80569 10.8135 7.68111 10.9389 7.58767C11.7518 7.00035 13.0878 7.16943 13.2434 7.3652C13.3991 7.56543 13.2002 8.94029 12.4392 9.5988C12.3225 9.70114 12.2101 9.64774 12.262 9.51426C12.4349 9.07377 12.8197 8.08156 12.6381 7.84574Z" fill="#FF9900"/>
</svg>
