<svg width="13" height="13" viewBox="0 0 13 13" fill="none" xmlns="http://www.w3.org/2000/svg">
<path d="M12.8718 5.39746C12.8365 5.37045 12.5074 5.13068 11.8133 5.13068C11.63 5.13145 11.4471 5.14661 11.2664 5.17603C11.132 4.28765 10.3707 3.85452 10.3366 3.83509L10.1502 3.73138L10.0276 3.90205C9.8741 4.13131 9.76203 4.38403 9.69624 4.64948C9.57196 5.1566 9.64754 5.63291 9.91455 6.04012C9.59212 6.21347 9.0749 6.25614 8.97023 6.25992H0.406934C0.183263 6.26022 0.00176507 6.4346 0.00054611 6.65038C-0.00944212 7.37415 0.117658 8.09361 0.375587 8.77332C0.670576 9.51968 1.10944 10.0695 1.68041 10.4059C2.32022 10.7839 3.3597 11 4.538 11C5.07031 11.0016 5.60161 10.9551 6.12495 10.8612C6.85244 10.7323 7.55247 10.487 8.19608 10.1353C8.7264 9.83904 9.20369 9.46211 9.6095 9.01904C10.2879 8.27809 10.6921 7.45288 10.9927 6.7195H11.1125C11.8553 6.7195 12.312 6.43273 12.5639 6.19241C12.7313 6.03914 12.862 5.85243 12.9468 5.64534L13 5.49521L12.8718 5.39746Z" fill="#2496ED"/>
<path d="M1.20069 6.01797H2.3482C2.40355 6.01797 2.4484 5.97469 2.4484 5.92131V4.93516C2.44871 4.88176 2.40409 4.83825 2.34877 4.83795C2.34859 4.83795 2.34839 4.83795 2.3482 4.83795H1.20069C1.14534 4.83795 1.10049 4.88124 1.10049 4.93461V4.93516V5.92129C1.10049 5.97469 1.14534 6.01797 1.20069 6.01797Z" fill="#2496ED"/>
<path d="M2.78202 6.01797H3.92954C3.98488 6.01797 4.02973 5.97469 4.02973 5.92131V4.93516C4.03004 4.88176 3.98543 4.83825 3.93008 4.83795C3.9299 4.83795 3.9297 4.83795 3.92952 4.83795H2.782C2.72635 4.83795 2.68124 4.88146 2.68124 4.93516V5.92129C2.68157 5.97478 2.72658 6.01797 2.78202 6.01797Z" fill="#2496ED"/>
<path d="M4.38741 6.01797H5.53493C5.59027 6.01797 5.63512 5.97469 5.63512 5.92131V4.93516C5.63543 4.88176 5.59082 4.83825 5.53548 4.83795C5.53529 4.83795 5.53509 4.83795 5.53491 4.83795H4.38739C4.33205 4.83795 4.2872 4.88124 4.2872 4.93461V4.93516V5.92129C4.28722 5.97469 4.33208 6.01797 4.38741 6.01797Z" fill="#2496ED"/>
<path d="M5.97379 6.01797H7.12131C7.17674 6.01797 7.22175 5.97479 7.22206 5.92131V4.93516C7.22206 4.88146 7.17696 4.83795 7.12131 4.83795H5.97379C5.91844 4.83795 5.8736 4.88124 5.8736 4.93461V4.93516V5.92129C5.8736 5.97469 5.91846 6.01797 5.97379 6.01797Z" fill="#2496ED"/>
<path d="M2.78203 4.59925H3.92955C3.98497 4.59896 4.02974 4.55551 4.02974 4.50205V3.51591C4.02974 3.46252 3.98487 3.41925 3.92955 3.41925H2.78203C2.72661 3.41925 2.68158 3.46243 2.68127 3.51591V4.50205C2.68158 4.55562 2.7265 4.59896 2.78203 4.59925Z" fill="#2496ED"/>
<path d="M4.38742 4.59925H5.53494C5.59036 4.59896 5.63513 4.55551 5.63513 4.50205V3.51591C5.63513 3.46252 5.59027 3.41925 5.53494 3.41925H4.38742C4.33208 3.41925 4.28723 3.46254 4.28723 3.51591V4.50205C4.28723 4.55551 4.33201 4.59896 4.38742 4.59925Z" fill="#2496ED"/>
<path d="M5.97379 4.59925H7.12131C7.17683 4.59896 7.22175 4.55562 7.22206 4.50205V3.51591C7.22175 3.46243 7.17674 3.41925 7.12131 3.41925H5.97379C5.91844 3.41925 5.8736 3.46254 5.8736 3.51591V4.50205C5.8736 4.55551 5.91837 4.59896 5.97379 4.59925Z" fill="#2496ED"/>
<path d="M5.97379 3.18002H7.12131C7.17674 3.18002 7.22175 3.13682 7.22206 3.08336V2.09666C7.22175 2.04318 7.17674 2 7.12131 2H5.97379C5.91844 2 5.8736 2.04327 5.8736 2.09666V3.08334C5.8736 3.13674 5.91846 3.18002 5.97379 3.18002Z" fill="#2496ED"/>
<path d="M7.57416 6.01797H8.72168C8.77711 6.01797 8.82212 5.97479 8.82243 5.92131V4.93516C8.82243 4.88146 8.77733 4.83795 8.72168 4.83795H7.57416C7.51883 4.83795 7.47397 4.88124 7.47397 4.93461V4.93516V5.92129C7.47397 5.97469 7.51883 6.01797 7.57416 6.01797Z" fill="#2496ED"/>
</svg>
