<svg width="13" height="13" viewBox="0 0 13 13" fill="none" xmlns="http://www.w3.org/2000/svg">
<g id="java">
<g id="Vector">
<path d="M5.22061 10.0536C5.22061 10.0536 4.70248 10.3425 5.58936 10.4403C6.66381 10.5578 7.21292 10.541 8.39698 10.3261C8.39698 10.3261 8.70829 10.5132 9.143 10.6753C6.48872 11.766 3.13577 10.6121 5.22061 10.0536ZM4.89626 8.63034C4.89626 8.63034 4.31512 9.04279 5.20267 9.13079C6.35042 9.24431 7.25681 9.25361 8.82525 8.96405C8.82525 8.96405 9.04219 9.17491 9.3833 9.29023C6.17407 10.19 2.59959 9.36119 4.89626 8.63034Z" fill="#5382A1"/>
<path d="M7.63058 6.21598C8.28462 6.93791 7.45875 7.58757 7.45875 7.58757C7.45875 7.58757 9.1194 6.76564 8.35674 5.73634C7.64444 4.77653 7.09817 4.29956 10.0553 2.65523C10.0553 2.65523 5.41357 3.76677 7.63058 6.21598Z" fill="#E76F00"/>
<path d="M11.1411 11.1064C11.1411 11.1064 11.5245 11.4093 10.7188 11.6436C9.18673 12.0887 4.34206 12.223 2.99622 11.6614C2.51244 11.4596 3.41969 11.1796 3.70506 11.1208C4.00268 11.0589 4.17278 11.0705 4.17278 11.0705C3.63475 10.707 0.69519 11.784 2.67964 12.0924C8.09147 12.9339 12.5449 11.7135 11.1411 11.1064ZM5.46975 7.15565C5.46975 7.15565 3.00548 7.71686 4.59712 7.92061C5.26914 8.00688 6.60882 7.98738 7.85671 7.88711C8.87655 7.80468 9.9006 7.62927 9.9006 7.62927C9.9006 7.62927 9.541 7.77694 9.28083 7.94726C6.77837 8.57829 1.94407 8.28473 3.3358 7.63925C4.51279 7.09377 5.46975 7.15565 5.46975 7.15565ZM9.89043 9.52478C12.4344 8.25737 11.2581 7.03942 10.4372 7.20353C10.2359 7.24365 10.1462 7.27843 10.1462 7.27843C10.1462 7.27843 10.2209 7.16627 10.3636 7.11771C11.9877 6.57024 13.2368 8.73235 9.83932 9.58865C9.83932 9.58869 9.87869 9.55497 9.89043 9.52478Z" fill="#5382A1"/>
<path d="M8.35673 0C8.35673 0 9.76559 1.35127 7.02051 3.42901C4.81927 5.09578 6.51856 6.0461 7.01961 7.13189C5.73469 6.02039 4.79171 5.04191 5.42436 4.13126C6.35285 2.79441 8.92515 2.14633 8.35673 0Z" fill="#E76F00"/>
<path d="M5.71973 12.9591C8.16154 13.109 11.9112 12.876 12 11.7682C12 11.7682 11.8293 12.1882 9.98198 12.5217C7.89785 12.8977 5.32739 12.8538 3.8028 12.6128C3.80284 12.6128 4.11486 12.8605 5.71973 12.9591Z" fill="#5382A1"/>
</g>
</g>
</svg>
