<svg width="13" height="13" viewBox="0 0 13 13" fill="none" xmlns="http://www.w3.org/2000/svg">
<path d="M3.02087 5.77446C3.04114 5.7564 3.06351 5.74086 3.0875 5.72815C3.06278 5.73963 3.04024 5.75529 3.02087 5.77446Z" fill="#F0D6B7"/>
<path d="M4.22988 7.41528C4.25425 7.58631 4.32738 9.10691 5.35357 9.95434C5.56209 9.98684 5.77211 10.0088 5.98285 10.0202C6.0966 9.77641 6.51585 9.79509 6.78925 9.85766C6.44649 9.68262 6.14509 9.43635 5.90525 9.13534C5.58601 8.85657 5.37444 8.47482 5.30725 8.05634C5.85488 8.81603 6.30744 9.47822 7.30316 9.81378C8.05675 10.0665 8.93669 9.698 9.5156 9.29134C9.73868 9.09778 9.92633 8.86683 10.0701 8.60884C10.7266 7.56419 11.0319 6.33704 10.9415 5.10656C10.96 4.63142 10.8912 4.15692 10.7384 3.70663C10.5544 3.33775 9.93241 3.00788 9.56841 3.341C9.5624 3.30805 9.56022 3.27452 9.56191 3.24106C9.50382 3.2955 9.46847 3.33531 9.46847 3.33531C9.43829 3.27356 9.4214 3.20616 9.41891 3.13747C9.42409 2.9775 9.48995 2.82549 9.60313 2.71232C9.71631 2.59914 9.86831 2.53327 10.0283 2.5281C9.85513 2.29232 9.6533 2.07902 9.42744 1.89313C8.63521 1.62241 7.78079 1.59104 6.97085 1.80294C6.40941 1.92363 5.88959 2.18986 5.46354 2.57491C5.03749 2.95996 4.7202 3.45028 4.5435 3.99669C4.46603 4.29834 4.41331 4.60581 4.38588 4.91603C4.37328 5.27516 4.55488 5.58838 4.56869 5.97919C4.4716 6.13925 4.17503 6.15916 3.96988 6.14819C3.95485 6.07222 3.93657 5.99422 3.91463 5.91825C3.75304 5.82815 3.58024 5.75985 3.40072 5.71513C3.55816 5.77953 3.68667 5.89919 3.76215 6.05163C3.83762 6.20407 3.85486 6.37881 3.81063 6.54306C3.6591 6.45653 3.62294 6.07588 3.445 6.06491C3.19069 6.04947 3.237 6.55891 3.23822 6.85709C3.15017 6.72608 3.09689 6.57483 3.08339 6.41756C3.06989 6.26029 3.09661 6.10217 3.16103 5.95806C3.04566 5.90159 2.98066 5.98284 2.91728 6.04622C2.8271 6.46709 2.69507 6.80713 2.94247 7.23247C3.01307 7.31449 3.10161 7.37915 3.20123 7.42142C3.30085 7.46369 3.40887 7.48244 3.51691 7.47622C3.74725 7.45347 3.80372 7.22272 4.05478 7.22516C4.10111 7.23252 4.14359 7.2553 4.17536 7.2898C4.20714 7.3243 4.22635 7.36851 4.22988 7.41528ZM6.84978 8.20625L6.72791 8.18147C6.72791 8.18147 6.60035 7.73459 6.66169 7.65091C6.69419 7.60744 6.87294 7.54203 7.12319 7.66228C7.12157 7.66269 6.825 7.71225 6.84978 8.20625ZM9.16785 8.75103C8.71622 8.9042 8.22639 8.9022 7.77603 8.74534C7.56417 8.59012 7.38671 8.39274 7.25482 8.16563C7.19185 8.08438 6.87822 7.878 7.24994 7.87759C7.54122 8.60884 8.54182 8.52434 9.3856 8.50444C9.34671 8.61125 9.26894 8.69906 9.16785 8.75103ZM9.28972 8.10103C9.27059 7.95772 9.27059 7.8125 9.28972 7.66919C9.71723 7.58565 10.1252 7.42233 10.4922 7.18778C10.4008 7.43951 10.2387 7.65949 10.0253 7.82134C9.81192 7.98319 9.55637 8.08003 9.28932 8.10022L9.28972 8.10103ZM10.4093 4.82138C10.335 4.84616 9.85278 5.13094 9.89016 4.77181C9.90905 4.66604 9.95864 4.56815 10.0328 4.49035C10.1069 4.41255 10.2022 4.35828 10.307 4.33428C10.3034 4.28017 10.3034 4.22589 10.307 4.17178H10.3391C10.4743 4.49337 10.6334 4.80435 10.8152 5.10209C10.6864 5.40191 9.84019 5.66678 9.854 5.12891C10.0368 5.04766 10.3525 5.11266 10.5146 5.01069C10.4764 4.90628 10.4333 4.80756 10.3927 4.70356L10.4093 4.82138ZM8.30213 6.75106C8.30939 6.76411 8.31563 6.77769 8.32082 6.79169C8.35778 6.58572 8.42603 6.34481 8.54344 6.38016C8.6005 6.39607 8.65099 6.42979 8.68753 6.47642C8.72407 6.52305 8.74476 6.58013 8.74657 6.63934C8.60973 6.72791 8.48087 6.82822 8.36144 6.93916C8.38785 7.06103 8.41994 7.18291 8.57391 7.21053C9.02322 7.28731 9.54607 6.9355 9.86944 6.81281C10.0697 6.47481 9.85197 6.3505 9.6716 6.13316C9.30191 5.68628 8.80628 5.13541 8.82416 4.46753C8.97366 4.35906 8.98666 4.63288 9.00778 4.68284C9.28213 5.20221 9.63009 5.6792 10.0409 6.09903C10.1278 6.19409 10.2712 6.2855 10.2871 6.34847C10.333 6.53169 10.1676 6.75106 10.1867 6.87253C9.67197 7.27782 9.02641 7.48019 8.37241 7.44128C8.28053 7.35316 8.22294 7.23526 8.20992 7.10862C8.1969 6.98197 8.22929 6.85482 8.30132 6.74984L8.30213 6.75106ZM9.09757 7.69397C9.12336 7.83611 9.13371 7.98063 9.12844 8.125C8.39272 8.16156 7.52294 7.97956 7.32997 7.46322C7.89567 7.66592 8.49844 7.74421 9.09716 7.69275L9.09757 7.69397ZM7.36857 4.18072C7.46299 4.44684 7.59678 4.6973 7.76547 4.92375C7.8581 5.01394 8.03766 5.12363 7.94869 5.37428C7.88573 5.47134 7.79478 5.54699 7.68788 5.59122C7.36694 5.68588 6.61903 5.61072 6.87213 5.21056C7.13741 5.22275 7.4945 5.38281 7.69275 5.19025C7.65416 5.1285 7.60785 5.05172 7.56194 4.96641C7.35882 5.09478 6.80063 5.10047 6.80063 4.77181C6.80063 4.42569 7.3446 4.35175 7.3446 4.35175L7.34866 4.3615C7.34265 4.30014 7.34929 4.2382 7.36816 4.1795L7.36857 4.18072ZM6.05882 2.99122C6.54428 2.66013 6.79007 2.84903 6.91194 3.0676C6.94338 3.08 6.97171 3.09917 6.99492 3.12373C7.01814 3.14829 7.03568 3.17765 7.0463 3.20974C7.05691 3.24183 7.06035 3.27585 7.05637 3.30942C7.05239 3.34298 7.04108 3.37526 7.02325 3.40397C6.34969 3.24716 6.01494 3.68591 5.8106 4.14091C5.75819 4.23597 5.75535 4.16853 5.72528 4.08566C5.71357 4.069 5.70515 4.05024 5.7005 4.03041C5.69038 4.01237 5.6778 3.99583 5.66313 3.98125C5.56563 3.88091 5.51485 3.36213 6.05882 2.99122Z" fill="#F0D6B7"/>
<path d="M2.55247 11.895H6.10838C6.09213 11.8402 6.07628 11.7861 6.06044 11.7349C5.97431 11.4769 5.90963 11.2122 5.86707 10.9436C5.43111 10.7546 5.01163 10.5297 4.61297 10.2712C4.57791 10.2389 4.54532 10.204 4.51547 10.1668L2.37616 11.1227C2.37616 11.1227 2.45294 11.429 2.55247 11.895Z" fill="#335061"/>
<path d="M3.83215 2.84376C3.89386 2.82479 3.95749 2.8128 4.02187 2.80801C4.1224 2.82186 4.22404 2.82581 4.32534 2.8198C4.52603 2.76983 4.69584 2.3197 4.84737 2.15192C4.96905 2.04005 5.09666 1.93482 5.22965 1.83667C4.67496 2.02771 4.18887 2.378 3.83215 2.84376Z" fill="#6D6B6D"/>
<path d="M2.91565 5.11308C3.04396 5.04525 3.18718 5.01052 3.33232 5.01203C3.47745 5.01354 3.61991 5.05124 3.74679 5.12172C3.87367 5.1922 3.98096 5.29323 4.05893 5.41565C4.1369 5.53807 4.18308 5.67802 4.1933 5.8228C4.47524 5.81549 4.29852 5.47099 4.24774 5.24877C4.09783 4.59552 4.44558 3.89189 4.32574 3.27399C2.75518 3.5088 2.84374 4.71496 2.91565 5.11308Z" fill="#6D6B6D"/>
<path d="M5.38241 1.56448C4.64303 1.77411 3.69566 2.31117 3.39178 2.97539C3.54172 2.94283 3.68895 2.89883 3.83216 2.84376C4.18888 2.378 4.67496 2.02771 5.22966 1.83667C5.25274 1.81572 5.27432 1.79319 5.29425 1.76923C5.37225 1.73145 5.48763 1.73429 5.4921 1.61689C5.45838 1.58073 5.42263 1.55311 5.38241 1.56448Z" fill="#DCD9D8"/>
<path d="M3.04685 3.65014C2.72185 4.00967 2.78848 4.68283 2.82829 5.16179C2.85692 5.14397 2.88648 5.1277 2.91685 5.11304C2.84373 4.71533 2.75679 3.50876 4.32695 3.27395C4.31387 3.20557 4.29456 3.13853 4.26926 3.07367C3.80215 3.09883 3.36341 3.30573 3.04685 3.65014Z" fill="#DCD9D8"/>
<path d="M4.22987 7.41528C4.22655 7.36915 4.20799 7.32543 4.1771 7.29101C4.14621 7.25659 4.10475 7.23342 4.05924 7.22516C4.19533 7.49653 3.84962 7.58185 3.81549 7.77563C3.81998 7.88981 3.83701 8.00316 3.86627 8.11363C3.98667 8.59807 4.18492 9.05976 4.4533 9.48066C4.56369 9.6166 4.70056 9.72869 4.8556 9.81012C5.01063 9.89155 5.1806 9.94062 5.35518 9.95435C4.32737 9.10732 4.25424 7.58632 4.22987 7.41528Z" fill="#F7E4CD"/>
<path d="M8.74454 6.63732C8.74273 6.57811 8.72204 6.52102 8.6855 6.4744C8.64896 6.42777 8.59848 6.39404 8.54141 6.37813C8.42401 6.34482 8.35576 6.58369 8.31879 6.78966C8.33621 6.83767 8.34979 6.88698 8.35941 6.93713C8.47884 6.8262 8.6077 6.72588 8.74454 6.63732Z" fill="#F7E4CD"/>
<path d="M9.88975 4.77103C9.85237 5.13015 10.3366 4.84537 10.4089 4.82059L10.3915 4.7044C10.3453 4.58554 10.3167 4.4606 10.3066 4.3335C10.2018 4.35749 10.1065 4.41177 10.0323 4.48957C9.95823 4.56737 9.90864 4.66525 9.88975 4.77103Z" fill="#F7E4CD"/>
<path d="M6.80023 4.77101C6.80023 5.09967 7.3572 5.09398 7.56154 4.96561C7.45149 4.7799 7.37902 4.57437 7.34826 4.3607L7.3442 4.35095C7.3442 4.35095 6.80023 4.42489 6.80023 4.77101Z" fill="#F7E4CD"/>
<path d="M2.92176 6.04702C2.90642 6.0635 2.8894 6.07834 2.87098 6.0913C2.88073 5.97075 2.93419 5.85792 3.02129 5.77402C3.04057 5.75504 3.06297 5.73951 3.08751 5.72812C3.13673 5.70422 3.19034 5.69072 3.245 5.68849C3.29966 5.68625 3.3542 5.69532 3.4052 5.71512C3.58472 5.75984 3.75752 5.82814 3.91911 5.91824C3.8407 5.64849 3.70623 5.40515 3.42836 5.37468C3.3167 5.36548 3.20434 5.37908 3.0981 5.41466C2.99186 5.45024 2.89397 5.50705 2.81037 5.58164C2.72678 5.65623 2.65922 5.74705 2.61181 5.84856C2.56441 5.95007 2.53814 6.06017 2.53461 6.17215C2.53471 6.56433 2.68184 6.94223 2.94695 7.23124C2.69914 6.80793 2.83158 6.4679 2.92176 6.04702Z" fill="#F7E4CD"/>
<path d="M6.9733 1.80494C7.78325 1.59305 8.63767 1.62441 9.42989 1.89513C9.36682 1.84588 9.30029 1.80122 9.23083 1.76147C8.46343 1.32841 7.16464 1.003 6.34646 1.40966C5.68793 1.73791 4.79743 2.28147 4.49396 2.97007C4.61861 3.29911 4.6361 3.65912 4.54393 3.99869C4.72079 3.45203 5.03839 2.96154 5.46482 2.57647C5.89125 2.1914 6.41149 1.92532 6.9733 1.80494Z" fill="#F7E4CD"/>
<path d="M9.4201 3.13953C9.4226 3.20822 9.43948 3.27562 9.46967 3.33737C9.46967 3.33737 9.50501 3.29674 9.56311 3.24312C9.5757 2.94493 9.91451 2.77512 10.3074 2.89131C10.2172 2.77512 10.1258 2.65203 10.0307 2.53015C9.87051 2.53503 9.7182 2.60076 9.60477 2.71396C9.49134 2.82717 9.4253 2.97935 9.4201 3.13953Z" fill="#F7E4CD"/>
<path d="M5.72485 4.08606C5.75492 4.16731 5.75817 4.23637 5.81017 4.14131C5.77586 4.13411 5.74546 4.11442 5.72485 4.08606Z" fill="#F7E4CD"/>
<path d="M5.70049 4.03084C5.68873 3.92591 5.7047 3.81973 5.7468 3.7229C5.8287 3.52077 5.96667 3.34627 6.14445 3.21995C6.32224 3.09363 6.53242 3.02076 6.75024 3.00993C6.80754 3.01903 6.86265 3.03873 6.91274 3.06802C6.79086 2.84946 6.54711 2.66177 6.05961 2.99165C5.51605 3.36255 5.56521 3.88134 5.66433 3.98046C5.67866 3.99549 5.69083 4.01245 5.70049 4.03084Z" fill="#F7E4CD"/>
<path d="M2.37615 11.1227L4.51546 10.1668C4.35865 9.98481 4.07712 9.63869 4.02796 9.65615C3.20686 10.0212 2.43996 10.4976 1.7489 11.0719C1.87331 11.3402 1.98316 11.6149 2.07796 11.895H2.55246C2.45293 11.429 2.37615 11.1227 2.37615 11.1227Z" fill="#49728B"/>
<path d="M10.9688 11.906C11.0572 11.6313 11.1315 11.3522 11.1914 11.0699C11.206 10.9964 11.2345 10.8769 11.2548 10.7628L10.0823 9.89178C10.3083 10.3923 10.3272 10.9617 10.1351 11.4762C10.1758 11.6273 10.3196 11.6854 10.3789 11.8215C10.3651 11.8458 10.3513 11.8698 10.3383 11.8942H10.9379C10.9491 11.8952 10.9598 11.8993 10.9688 11.906Z" fill="#335061"/>
<path d="M9.59442 9.72807C9.65859 9.69435 9.73096 9.67942 9.80323 9.685L9.70655 9.6131C9.66412 9.64615 9.6264 9.68483 9.59442 9.72807Z" fill="#335061"/>
<path d="M11.2759 10.5134C11.2458 10.2952 10.9509 10.1335 10.7997 9.99904C10.5219 9.75001 10.348 9.53063 10.0591 9.29785C9.95599 9.41815 9.83727 9.52417 9.70612 9.6131L9.8028 9.68501C9.86242 9.6948 9.91882 9.71872 9.9673 9.75477C10.0158 9.79081 10.0549 9.83793 10.0815 9.8922L11.2531 10.7628C11.2717 10.681 11.2793 10.5971 11.2759 10.5134Z" fill="#49728B"/>
<path d="M8.35736 11.8625C8.35768 11.8729 8.3589 11.8832 8.36102 11.8934H8.55561C8.55561 11.8575 8.56986 11.8231 8.59523 11.7977C8.6206 11.7723 8.65501 11.7581 8.69089 11.7581C8.72677 11.7581 8.76118 11.7723 8.78655 11.7977C8.81192 11.8231 8.82617 11.8575 8.82617 11.8934H9.14061V11.8812C9.0293 11.8227 8.78595 11.6963 8.65311 11.6403C8.48086 11.568 8.35736 11.8625 8.35736 11.8625Z" fill="white"/>
<path d="M8.35737 11.8625C8.35737 11.8625 8.47925 11.5659 8.65394 11.6399C8.78475 11.6959 9.02809 11.8223 9.14144 11.8808C9.1455 11.7914 9.14956 11.702 9.15525 11.6126C8.90419 11.6285 8.76484 11.3856 8.58894 11.3669C8.43537 11.3502 8.30456 11.5436 8.1055 11.4599C8.05959 11.5103 8.01815 11.5651 7.97144 11.6147C8.04377 11.7029 8.11014 11.7959 8.17009 11.893H8.36347C8.36055 11.883 8.35851 11.8728 8.35737 11.8625Z" fill="#DCD9D8"/>
<path d="M5.89509 10.2249C5.58078 10.224 5.26896 10.1691 4.97331 10.0624C4.96167 10.0736 4.95255 10.0872 4.94653 10.1022C4.94051 10.1172 4.93773 10.1333 4.93839 10.1494C4.93904 10.1656 4.9431 10.1814 4.95031 10.1959C4.95752 10.2104 4.96771 10.2232 4.98022 10.2334C5.25708 10.3534 5.54994 10.4325 5.84959 10.4682C5.87889 10.3904 5.89429 10.308 5.89509 10.2249Z" fill="white"/>
<path d="M5.83252 10.5905C5.83304 10.5494 5.83863 10.5084 5.84917 10.4686C5.54952 10.433 5.25667 10.3539 4.9798 10.2338C5.2262 10.4282 5.52107 10.5516 5.83252 10.5905Z" fill="#DCD9D8"/>
<path d="M9.99904 11.2503C10.0263 11.1346 10.0363 11.0155 10.0287 10.8969C10.0201 10.708 9.99291 10.5205 9.94744 10.337C9.81066 10.3205 9.67206 10.3272 9.53754 10.357C9.41566 10.3817 9.29013 10.4065 9.26576 10.5548C9.24138 10.7031 9.31532 10.7774 9.24097 10.9009C9.16663 11.0244 9.04313 10.9505 8.91963 11.0228C8.83554 11.0732 8.88876 11.2036 8.93141 11.282C9.25937 11.3566 9.59411 11.3974 9.93038 11.4039C9.96295 11.3576 9.98626 11.3054 9.99904 11.2503Z" fill="#D33833"/>
<path d="M6.32208 11.8702C6.32858 11.8877 6.33549 11.906 6.34118 11.9222C6.34686 11.9385 6.35296 11.96 6.35824 11.9787L6.35458 11.9312L6.32208 11.8702Z" fill="#D33833"/>
<path d="M7.94744 11.3445C7.95015 11.273 7.95299 11.2017 7.95597 11.1304C7.82687 11.1703 7.68743 11.1596 7.56597 11.1004C7.18531 10.8928 7.54566 10.9541 7.41078 10.6787C7.25653 10.5967 7.08749 10.5463 6.91353 10.5304C6.41466 10.5304 6.22291 10.4301 6.27653 11.0053C6.30456 11.3141 6.32975 11.6224 6.35413 11.9316C6.39475 12.0079 6.43131 12.0766 6.46056 12.1347C6.72145 12.1094 6.97464 12.0322 7.20522 11.9076C7.46269 11.7335 7.71047 11.5456 7.94744 11.3445Z" fill="#D33833"/>
<path d="M8.13599 11.05C8.14452 11.0861 8.15345 11.1268 8.16199 11.1759C8.19862 11.1956 8.23913 11.207 8.28065 11.2093C8.32216 11.2116 8.36369 11.2048 8.40228 11.1893C8.44088 11.1739 8.47562 11.1501 8.50405 11.1198C8.53247 11.0894 8.5539 11.0532 8.56681 11.0137C8.57973 10.9742 8.58382 10.9323 8.57879 10.891C8.57377 10.8497 8.55975 10.8101 8.53773 10.7748C8.51571 10.7395 8.48622 10.7095 8.45134 10.6869C8.41646 10.6642 8.37704 10.6495 8.33586 10.6437C8.34939 10.7239 8.33737 10.8062 8.3015 10.8791C8.26563 10.952 8.20772 11.0118 8.13599 11.05Z" fill="#D33833"/>
<path d="M8.91841 11.0244C9.04029 10.95 9.16582 11.0244 9.23975 10.9025C9.31369 10.7806 9.23975 10.7047 9.26454 10.5564C9.28932 10.4081 9.41282 10.3833 9.53632 10.3585C9.67085 10.3288 9.80944 10.3221 9.94622 10.3386C9.93027 10.2369 9.88046 10.1436 9.80485 10.0738C9.50138 9.89664 8.9696 10.4089 8.72219 10.5178L8.69904 10.5271C8.7357 10.598 8.75975 10.6747 8.77013 10.7538C8.82484 10.7403 8.88119 10.7345 8.9375 10.7368C8.97517 10.7383 9.01267 10.7428 9.04963 10.7502C9.06791 10.7538 9.08579 10.7583 9.10366 10.7632C9.13761 10.7727 9.17065 10.7852 9.20238 10.8005C9.09885 10.8047 8.99592 10.8183 8.89485 10.8412C8.86589 10.8496 8.83846 10.8627 8.8136 10.8798C8.80249 11.0013 8.79774 11.1233 8.79938 11.2454C8.84217 11.2576 8.88578 11.2689 8.93019 11.2795C8.88754 11.2052 8.83432 11.0748 8.91841 11.0244Z" fill="#EF3D3A"/>
<path d="M6.35821 11.9783C6.37893 12.0526 6.3968 12.1197 6.46099 12.1347C6.43174 12.0762 6.39477 12.0075 6.35455 11.9316L6.35821 11.9783Z" fill="#EF3D3A"/>
<path d="M6.27657 11.0049C6.22417 10.4297 6.4147 10.53 6.91357 10.53C7.08753 10.5459 7.25657 10.5963 7.41082 10.6783C7.5457 10.9537 7.18535 10.8924 7.56601 11.1C7.68747 11.1592 7.82691 11.1699 7.95601 11.1301V11.1045C7.839 11.0457 7.71339 11.0059 7.58388 10.9867C7.53394 10.9791 7.48363 10.9742 7.43317 10.972C7.47104 10.9538 7.51064 10.9393 7.55138 10.929C7.67895 10.9089 7.80293 10.8705 7.91945 10.8148C7.91945 10.7827 7.92188 10.7506 7.9231 10.7189C7.89584 10.7167 7.86872 10.7131 7.84185 10.708C7.81756 10.7034 7.79355 10.6974 7.76995 10.6901C7.72849 10.677 7.68848 10.6597 7.65051 10.6385C7.5782 10.5979 7.51604 10.5507 7.43723 10.5077C7.12972 10.3427 6.80035 10.2222 6.45898 10.1498C6.08482 10.0783 6.08157 10.5987 6.09742 10.9822C6.09742 11.0228 6.10067 11.0602 6.1027 11.0959C6.13711 11.3629 6.21162 11.6231 6.3237 11.8678L6.35579 11.9287C6.3302 11.6224 6.3046 11.3137 6.27657 11.0049Z" fill="#EF3D3A"/>
<path d="M8.33627 10.6437C8.25092 10.6455 8.16827 10.6739 8.09984 10.725C8.09399 10.7807 8.09495 10.8369 8.10268 10.8924C8.10715 10.9245 8.11406 10.9553 8.12218 10.989L8.13477 11.0423V11.0492C8.20666 11.0113 8.2648 10.9517 8.30097 10.879C8.33713 10.8062 8.34948 10.7239 8.33627 10.6437Z" fill="#EF3D3A"/>
<path d="M5.74678 3.72286C5.70468 3.81969 5.68871 3.92586 5.70047 4.03079C5.70512 4.05063 5.71353 4.06938 5.72525 4.08604C5.74586 4.1144 5.77626 4.13409 5.81057 4.14129C6.01369 3.68629 6.34966 3.24754 7.02322 3.40436C7.04105 3.37564 7.05236 3.34337 7.05634 3.3098C7.06032 3.27624 7.05688 3.24221 7.04626 3.21013C7.03565 3.17804 7.01811 3.14868 6.99489 3.12411C6.97168 3.09955 6.94335 3.08039 6.91191 3.06798C6.86182 3.03869 6.80672 3.01898 6.74941 3.00989C6.53173 3.02087 6.32172 3.09381 6.1441 3.22012C5.96647 3.34643 5.82863 3.52085 5.74678 3.72286Z" fill="#231F20"/>
<path d="M9.85238 5.12973C9.83938 5.66761 10.6848 5.40273 10.8136 5.10292C10.6318 4.80518 10.4726 4.4942 10.3374 4.17261H10.3054C10.3018 4.22672 10.3018 4.281 10.3054 4.33511C10.3155 4.46221 10.3441 4.58715 10.3903 4.70601C10.4289 4.81001 10.4735 4.90914 10.5121 5.01314C10.3509 5.11348 10.0344 5.0497 9.85238 5.12973Z" fill="#231F20"/>
<path d="M7.69193 5.18904C7.49368 5.3816 7.13659 5.22154 6.87131 5.20935C6.61821 5.6095 7.36612 5.68466 7.68706 5.59C7.79396 5.54577 7.88491 5.47012 7.94787 5.37307C8.03684 5.12241 7.85728 5.01272 7.76465 4.92254C7.59596 4.69609 7.46217 4.44563 7.36774 4.1795C7.3489 4.23779 7.34213 4.2993 7.34784 4.36029C7.37859 4.57395 7.45106 4.77949 7.56112 4.96519C7.60743 5.0505 7.65334 5.12729 7.69193 5.18904Z" fill="#231F20"/>
<path d="M8.37079 7.44047C9.0248 7.47937 9.67035 7.27701 10.1851 6.87172C10.166 6.74984 10.3314 6.53046 10.2855 6.34765C10.2696 6.28468 10.1262 6.19328 10.0393 6.09821C9.62847 5.67839 9.28051 5.20139 9.00617 4.68203C8.98464 4.63206 8.97164 4.35703 8.82254 4.46671C8.80467 5.13378 9.30029 5.68546 9.66998 6.13234C9.85036 6.34968 10.0681 6.474 9.86783 6.812C9.54283 6.93387 9.02161 7.2869 8.57229 7.20971C8.41833 7.18331 8.38623 7.06143 8.35983 6.93834C8.35021 6.88819 8.33662 6.83888 8.3192 6.79087C8.31402 6.77687 8.30777 6.76329 8.30051 6.75025C8.22872 6.85503 8.19638 6.98186 8.20925 7.10823C8.22211 7.23459 8.27935 7.35231 8.37079 7.44047Z" fill="#231F20"/>
<path d="M3.08753 5.72812C3.06431 5.74059 3.04263 5.75572 3.02293 5.77322C2.93582 5.85712 2.88237 5.96995 2.87262 6.0905C2.89104 6.07754 2.90805 6.0627 2.9234 6.04622C2.98556 5.98284 3.05056 5.90119 3.16715 5.95806C3.10272 6.10217 3.076 6.26029 3.08951 6.41756C3.10301 6.57483 3.15629 6.72608 3.24434 6.85709C3.24434 6.55931 3.19681 6.04987 3.45112 6.06491C3.62906 6.07587 3.66521 6.45653 3.81674 6.54306C3.86055 6.37853 3.84273 6.20366 3.76665 6.05134C3.69056 5.89902 3.56145 5.77974 3.40359 5.71594C3.35287 5.69624 3.29866 5.68716 3.24429 5.68926C3.18993 5.69136 3.13657 5.70458 3.08753 5.72812Z" fill="#231F20"/>
<path d="M9.29011 7.66797C9.27097 7.81128 9.27097 7.9565 9.29011 8.09981C9.55737 8.0796 9.81311 7.98262 10.0266 7.82054C10.24 7.65846 10.4022 7.43817 10.4934 7.18616C10.1262 7.42095 9.71792 7.5844 9.29011 7.66797Z" fill="#231F20"/>
<path d="M9.12843 8.125C9.13371 7.97994 9.12322 7.83473 9.09714 7.69194C8.49852 7.74378 7.89575 7.66591 7.32996 7.46362C7.52292 7.98037 8.39271 8.16237 9.12843 8.125Z" fill="#231F20"/>
<path d="M7.24995 7.8772C6.87824 7.8772 7.19186 8.08439 7.25483 8.16523C7.3868 8.39253 7.5644 8.59005 7.77645 8.74535C8.22681 8.90221 8.71664 8.90421 9.16827 8.75104C9.26944 8.69897 9.34722 8.6106 9.38602 8.50363C8.54183 8.52395 7.54124 8.60804 7.24995 7.8772Z" fill="#231F20"/>
<path d="M10.14 11.895C10.0441 11.7418 9.89225 11.6321 9.71671 11.5891C9.59043 11.5637 9.45927 11.5808 9.34377 11.6379C9.34052 11.7191 9.33646 11.8065 9.33118 11.8946L10.14 11.895Z" fill="#81B0C4"/>
<path d="M8.92572 10.0543C8.64703 10.079 8.31918 10.2058 8.01084 10.2245C7.98281 10.2245 7.95478 10.2269 7.92715 10.2269C7.89953 10.2269 7.8719 10.2269 7.8459 10.2229C7.7919 10.2181 7.73853 10.2077 7.68665 10.192C7.66065 10.184 7.63514 10.1745 7.61028 10.1635C7.61028 10.1847 7.58143 10.1769 7.57697 10.1944C7.6115 10.2212 7.64481 10.2456 7.67731 10.2671C7.70981 10.2887 7.7419 10.3078 7.774 10.3252C7.83513 10.3583 7.89988 10.3842 7.96697 10.4024C8.07531 10.4295 8.18682 10.4418 8.29847 10.439C8.33909 10.439 8.38459 10.439 8.43131 10.4353C8.5999 10.3122 8.7494 10.1688 8.92572 10.0543Z" fill="#F0D6B7"/>
<path d="M7.75368 11.8007L7.61108 11.8954H7.82518C7.80189 11.8631 7.77805 11.8316 7.75368 11.8007Z" fill="#81B0C4"/>
<path d="M1.90164 12.0937V11.9576C1.90164 11.9411 1.90819 11.9253 1.91985 11.9136C1.93151 11.902 1.94732 11.8954 1.9638 11.8954H2.07877C1.98396 11.6153 1.87412 11.3406 1.74971 11.0724C2.44076 10.498 3.20766 10.0216 4.02877 9.65658C4.07671 9.63748 4.35824 9.98523 4.51627 10.1672C4.54612 10.2044 4.57871 10.2393 4.61377 10.2716C5.01242 10.5302 5.4319 10.755 5.86786 10.944C5.91043 11.2126 5.97511 11.4773 6.06124 11.7354C6.07708 11.7865 6.09293 11.841 6.10918 11.8954H6.17499C6.19147 11.8954 6.20728 11.902 6.21894 11.9136C6.2306 11.9253 6.23714 11.9411 6.23714 11.9576V12.0218H6.29361C6.3101 12.0218 6.32591 12.0283 6.33756 12.04C6.34922 12.0516 6.35577 12.0674 6.35577 12.0839V12.1875H7.04274V12.0839C7.04274 12.0674 7.04929 12.0516 7.06094 12.04C7.0726 12.0283 7.08841 12.0218 7.1049 12.0218H7.42177V11.9576C7.42177 11.9411 7.42832 11.9253 7.43997 11.9136C7.45163 11.902 7.46744 11.8954 7.48393 11.8954H7.61271L7.7553 11.8008C7.77968 11.8316 7.80351 11.8632 7.8268 11.8954H8.16927C8.10931 11.7983 8.04295 11.7054 7.97061 11.6171C8.01733 11.5676 8.05877 11.5131 8.10468 11.4624C8.30455 11.546 8.43455 11.3527 8.58811 11.3693C8.76402 11.388 8.90336 11.631 9.15443 11.6151C9.14874 11.7045 9.14468 11.7939 9.14061 11.8832V11.8954H9.33318C9.33805 11.8073 9.34252 11.7211 9.34577 11.6387C9.46126 11.5816 9.59243 11.5645 9.71871 11.5899C9.89425 11.6329 10.0461 11.7426 10.142 11.8958H10.3374C10.3512 11.8715 10.3655 11.8475 10.3781 11.8231C10.32 11.687 10.177 11.6293 10.1343 11.4778C10.3264 10.9634 10.3074 10.3939 10.0815 9.89342C10.0549 9.83916 10.0158 9.79204 9.9673 9.75599C9.91882 9.71995 9.86241 9.69603 9.8028 9.68623C9.73053 9.68065 9.65815 9.69558 9.59399 9.7293C9.62584 9.68608 9.66343 9.64741 9.70571 9.61433C9.83687 9.52539 9.95559 9.41937 10.0587 9.29908C10.348 9.53186 10.5223 9.75083 10.7997 9.99986C10.9501 10.1347 11.2466 10.2964 11.2759 10.5142C11.2796 10.5979 11.2722 10.6818 11.2539 10.7636C11.2332 10.8778 11.2052 10.9972 11.1906 11.0707C11.1309 11.3527 11.0569 11.6315 10.9687 11.906C10.9776 11.9114 10.9849 11.919 10.9901 11.928C10.9952 11.937 10.9979 11.9472 10.998 11.9576V12.1875H11.1475C11.2523 11.8593 11.3551 11.5233 11.4587 11.1764C11.5767 10.8944 11.6425 10.5934 11.6529 10.2879C11.6212 10.0372 11.2304 9.77398 11.0244 9.57533C10.9102 9.46523 10.3772 9.06061 10.3464 8.90908C10.3155 8.75755 10.5637 8.43051 10.6433 8.26476C10.747 8.02987 10.8313 7.78695 10.8956 7.53839C11.3149 6.06492 11.3575 4.04017 10.7579 2.82914C10.428 2.29091 10.001 1.81868 9.49852 1.43651C8.56415 0.728826 6.8323 0.650419 5.70455 1.06561C5.39592 1.16603 5.09683 1.29369 4.8108 1.44708C4.07224 1.88014 3.28818 2.1702 3.06921 3.04283C2.52971 3.28658 2.3668 3.9772 2.39402 4.7767C2.43069 4.94044 2.45097 5.10742 2.45455 5.27517C2.43952 5.34992 2.33836 5.44539 2.31805 5.49373C2.21538 5.80312 2.1843 6.13179 2.22716 6.45494C2.27002 6.7781 2.38569 7.0873 2.56546 7.35923C2.66512 7.50776 2.79414 7.6343 2.94456 7.73107C3.09499 7.82783 3.26364 7.89277 3.44011 7.92189C3.45681 8.15781 3.51844 8.38836 3.62171 8.60114C3.69077 8.75267 3.94874 9.02486 3.85368 9.21823C3.66879 9.3744 3.46468 9.50629 3.24633 9.61067C2.77589 9.89301 2.43383 10.0657 2.00077 10.3785C1.71964 10.5816 1.28049 10.6068 1.35077 11.0732C1.43487 11.4211 1.54458 11.7623 1.67902 12.0941C1.68918 12.1258 1.70055 12.157 1.71152 12.1883H1.90246L1.90164 12.0937ZM5.29424 1.76923C5.2743 1.79319 5.25272 1.81572 5.22964 1.83667C5.09665 1.93481 4.96904 2.04005 4.84736 2.15192C4.69583 2.3197 4.52643 2.76983 4.32533 2.81979C4.22403 2.82581 4.12239 2.82186 4.02186 2.80801C3.95749 2.8128 3.89385 2.82479 3.83214 2.84376C3.68894 2.89897 3.54172 2.94311 3.39177 2.97579C3.69564 2.31158 4.64302 1.77451 5.38239 1.56489C5.42302 1.55351 5.45877 1.58114 5.49249 1.61729C5.48802 1.73389 5.37224 1.73145 5.29424 1.76923ZM4.32533 3.27236C4.44721 3.89026 4.09743 4.5943 4.24733 5.24714C4.29811 5.46895 4.47483 5.81345 4.19289 5.82117C4.18268 5.67639 4.13649 5.53645 4.05852 5.41402C3.98055 5.2916 3.87327 5.19057 3.74639 5.12009C3.6195 5.04961 3.47704 5.01191 3.33191 5.0104C3.18677 5.00889 3.04356 5.04362 2.91524 5.11145C2.88487 5.12611 2.8553 5.14238 2.82668 5.1602C2.78605 4.68123 2.71861 4.00808 3.04524 3.64855C3.3618 3.30414 3.80053 3.09723 4.26764 3.07208C4.29304 3.13746 4.31235 3.20505 4.32533 3.27398V3.27236ZM2.94693 7.23126C2.68144 6.94341 2.53332 6.5666 2.53174 6.17501C2.53527 6.06303 2.56154 5.95294 2.60894 5.85143C2.65635 5.74991 2.72391 5.6591 2.8075 5.58451C2.8911 5.50992 2.98899 5.45311 3.09523 5.41753C3.20147 5.38195 3.31383 5.36835 3.42549 5.37755C3.70336 5.40801 3.83743 5.65136 3.91624 5.92111C3.93818 5.99708 3.95686 6.07508 3.97149 6.15105C4.17664 6.16201 4.47321 6.14211 4.5703 5.98205C4.55649 5.59123 4.37489 5.27801 4.38749 4.91889C4.41492 4.60866 4.46764 4.30119 4.54511 3.99955C4.63728 3.65997 4.61979 3.29996 4.49514 2.97092C4.79861 2.28233 5.68911 1.73917 6.34764 1.41051C7.1638 1.00426 8.46299 1.32926 9.23202 1.76233C9.30148 1.80207 9.368 1.84674 9.43108 1.89598C9.65694 2.08188 9.85878 2.29518 10.0319 2.53095C10.127 2.65283 10.2184 2.7747 10.3086 2.89211C9.91574 2.77551 9.57733 2.94573 9.56433 3.24392C9.56264 3.27737 9.56482 3.31091 9.57083 3.34386C9.93646 3.01033 10.5568 3.3402 10.7408 3.70948C10.8936 4.15977 10.9625 4.63428 10.944 5.10942C11.0343 6.3399 10.729 7.56705 10.0726 8.6117C9.92876 8.86969 9.74111 9.10064 9.51802 9.2942C8.93911 9.70045 8.05918 10.0693 7.30558 9.81664C6.30986 9.4823 5.8573 8.81889 5.30968 8.0592C5.37686 8.47768 5.58843 8.85942 5.90768 9.1382C6.14751 9.43921 6.44891 9.68548 6.79168 9.86051C6.51827 9.79633 6.10105 9.77602 5.98527 10.023C5.77454 10.0117 5.56451 9.98969 5.35599 9.9572C5.18141 9.94347 5.01144 9.8944 4.85641 9.81298C4.70137 9.73155 4.5645 9.61946 4.45411 9.48351C4.18573 9.06261 3.98748 8.60093 3.86708 8.11648C3.83782 8.00602 3.82079 7.89267 3.8163 7.77848C3.85205 7.5843 4.19777 7.49939 4.06005 7.22801C3.80899 7.22558 3.75252 7.45633 3.52218 7.47908C3.41367 7.48493 3.30529 7.46561 3.20549 7.42262C3.1057 7.37963 3.0172 7.31414 2.94693 7.23126ZM8.13474 11.0419L8.12215 10.9887C8.11402 10.955 8.10752 10.9241 8.10264 10.892C8.09491 10.8365 8.09396 10.7803 8.0998 10.7246C8.16823 10.6736 8.25089 10.6452 8.33624 10.6434C8.37742 10.6491 8.41684 10.6638 8.45172 10.6865C8.4866 10.7091 8.51609 10.7391 8.53811 10.7744C8.56013 10.8097 8.57414 10.8494 8.57917 10.8906C8.58419 10.9319 8.58011 10.9738 8.56719 11.0133C8.55428 11.0528 8.53285 11.0891 8.50442 11.1194C8.476 11.1497 8.44126 11.1735 8.40266 11.189C8.36406 11.2044 8.32254 11.2112 8.28102 11.2089C8.2395 11.2066 8.199 11.1952 8.16236 11.1755C8.15383 11.1264 8.1449 11.0858 8.13636 11.0496L8.13474 11.0419ZM4.9733 10.0592C5.26895 10.1659 5.58077 10.2208 5.89508 10.2217C5.89433 10.305 5.87893 10.3875 5.84958 10.4654C5.83904 10.5052 5.83345 10.5461 5.83293 10.5873C5.52118 10.548 5.22614 10.4241 4.9798 10.229C4.96785 10.2187 4.95814 10.2061 4.95128 10.1919C4.94443 10.1777 4.94058 10.1623 4.93997 10.1465C4.93936 10.1308 4.942 10.1151 4.94774 10.1004C4.95347 10.0857 4.96218 10.0724 4.9733 10.0612V10.0592ZM7.96614 10.4C7.89906 10.3818 7.83431 10.3559 7.77318 10.3228C7.74149 10.3058 7.70939 10.2863 7.67649 10.2647C7.64358 10.2432 7.61068 10.2188 7.57615 10.192C7.58061 10.1745 7.60824 10.1823 7.60946 10.1611C7.63432 10.1721 7.65983 10.1816 7.68583 10.1896C7.73771 10.2053 7.79107 10.2157 7.84508 10.2205C7.8723 10.2229 7.89952 10.2241 7.92633 10.2245C7.95315 10.2249 7.98199 10.2245 8.01002 10.2221C8.31836 10.2034 8.64621 10.0766 8.9249 10.0519C8.74899 10.1668 8.5999 10.3102 8.43008 10.4329C8.38336 10.4354 8.33908 10.4366 8.29724 10.4366C8.18582 10.44 8.07446 10.4284 7.96614 10.402V10.4ZM7.20564 11.9056C6.97507 12.0302 6.72188 12.1074 6.46099 12.1327C6.3968 12.1176 6.37974 12.0514 6.35821 11.9763C6.35293 11.9576 6.34764 11.9389 6.34115 11.9198C6.33464 11.9007 6.32896 11.8853 6.32205 11.8678C6.20997 11.6231 6.13547 11.3629 6.10105 11.0959C6.10105 11.0602 6.09739 11.022 6.09577 10.9822C6.07993 10.5987 6.08318 10.0783 6.45733 10.1498C6.79871 10.2222 7.12808 10.3427 7.43558 10.5077C7.51439 10.5507 7.57655 10.5991 7.64886 10.6385C7.68683 10.6597 7.72685 10.677 7.7683 10.6901C7.7919 10.6974 7.81591 10.7034 7.84021 10.708C7.86707 10.7131 7.8942 10.7167 7.92146 10.7189C7.92146 10.7506 7.91902 10.7827 7.9178 10.8148C7.80128 10.8705 7.6773 10.9089 7.54974 10.929C7.509 10.9393 7.46939 10.9538 7.43152 10.972C7.48198 10.9742 7.53229 10.9791 7.58224 10.9866C7.71174 11.0059 7.83735 11.0457 7.95436 11.1045V11.13C7.95166 11.2015 7.94881 11.2729 7.94583 11.3441C7.70953 11.5453 7.46243 11.7334 7.20564 11.9076V11.9056ZM8.93018 11.2816C8.88576 11.271 8.84216 11.2596 8.79936 11.2475C8.79773 11.1254 8.80247 11.0034 8.81358 10.8818C8.83845 10.8647 8.86587 10.8517 8.89483 10.8432C8.9959 10.8204 9.09883 10.8068 9.20236 10.8026C9.17063 10.7872 9.1376 10.7747 9.10365 10.7652C9.08618 10.7604 9.06789 10.7559 9.04961 10.7522C9.0127 10.7441 8.97521 10.739 8.93749 10.7368C8.88193 10.7342 8.82628 10.7394 8.77215 10.7522C8.76177 10.6731 8.73771 10.5964 8.70105 10.5255L8.72421 10.5162C8.97161 10.4073 9.5034 9.89505 9.80686 10.0722C9.88247 10.142 9.93229 10.2354 9.94824 10.337C9.99371 10.5205 10.0209 10.708 10.0295 10.8969C10.0371 11.0155 10.0271 11.1346 9.99983 11.2503C9.98683 11.3059 9.9631 11.3585 9.92996 11.4051C9.59341 11.3987 9.2584 11.3578 8.93018 11.2832V11.2816Z" fill="#231F20"/>
<path d="M7.12159 7.66266C6.87134 7.54079 6.69259 7.60782 6.66009 7.65129C6.59834 7.73254 6.72631 8.18185 6.72631 8.18185L6.84818 8.20663C6.82502 7.71222 7.12159 7.66266 7.12159 7.66266Z" fill="#F7E4CD"/>
<path d="M8.69088 11.7654C8.656 11.7655 8.62248 11.779 8.59729 11.8031C8.5721 11.8272 8.55717 11.8601 8.5556 11.895H8.82617C8.8246 11.8601 8.80967 11.8272 8.78448 11.8031C8.75929 11.779 8.72577 11.7655 8.69088 11.7654Z" fill="#1D1919"/>
<path d="M6.35458 12.0839C6.35458 12.0674 6.34803 12.0516 6.33637 12.0399C6.32472 12.0283 6.30891 12.0217 6.29242 12.0217H6.23595V12.0936C6.23595 12.1101 6.22941 12.1259 6.21775 12.1376C6.20609 12.1492 6.19028 12.1558 6.1738 12.1558H1.96383C1.94734 12.1558 1.93153 12.1492 1.91988 12.1376C1.90822 12.1259 1.90167 12.1101 1.90167 12.0936V12.1875H6.35458V12.0839Z" fill="#231F20"/>
<path d="M10.9354 12.1558H7.48232C7.46584 12.1558 7.45003 12.1492 7.43837 12.1376C7.42672 12.1259 7.42017 12.1101 7.42017 12.0936V12.0217H7.10329C7.08681 12.0217 7.071 12.0283 7.05934 12.0399C7.04769 12.0516 7.04114 12.0674 7.04114 12.0839V12.1875H10.9968V12.0936C10.9968 12.11 10.9904 12.1257 10.9789 12.1373C10.9674 12.1489 10.9518 12.1556 10.9354 12.1558Z" fill="#231F20"/>
<path d="M1.96383 12.1558H6.17502C6.1915 12.1558 6.20731 12.1492 6.21897 12.1376C6.23062 12.1259 6.23717 12.1101 6.23717 12.0936V11.9575C6.23717 11.9411 6.23062 11.9252 6.21897 11.9136C6.20731 11.9019 6.1915 11.8954 6.17502 11.8954H1.96383C1.94734 11.8954 1.93153 11.9019 1.91988 11.9136C1.90822 11.9252 1.90167 11.9411 1.90167 11.9575V12.0936C1.90167 12.1101 1.90822 12.1259 1.91988 12.1376C1.93153 12.1492 1.94734 12.1558 1.96383 12.1558Z" fill="#231F20"/>
<path d="M7.42059 12.0936C7.42059 12.1101 7.42714 12.1259 7.4388 12.1376C7.45045 12.1492 7.46626 12.1558 7.48275 12.1558H10.9359C10.9524 12.1558 10.9682 12.1492 10.9798 12.1376C10.9915 12.1259 10.998 12.1101 10.998 12.0936V11.9575C10.998 11.9472 10.9952 11.937 10.9901 11.9279C10.985 11.9189 10.9776 11.9113 10.9688 11.9059C10.9591 11.8993 10.9476 11.8956 10.9359 11.8954H7.48275C7.46626 11.8954 7.45045 11.9019 7.4388 11.9136C7.42714 11.9252 7.42059 11.9411 7.42059 11.9575V12.0936Z" fill="#231F20"/>
</svg>
