<svg width="13" height="13" viewBox="0 0 13 13" fill="none" xmlns="http://www.w3.org/2000/svg">
<path d="M11.1411 5.42102C11.9471 5.65502 11.9471 5.65502 11.9471 5.65502L11.1931 5.87602L11.7131 6.09702L11.1671 6.20102L11.1411 5.42102Z" fill="#1A1A1A"/>
<path d="M11.063 6.33102L11.05 5.94102L10.868 5.86302L11.05 5.81102L11.037 5.27802L12.363 5.66802L11.544 5.91502L12.116 6.14902L11.063 6.33102ZM11.271 6.04502V6.07102L11.31 6.05802L11.271 6.04502ZM11.258 5.57702V5.74602L11.544 5.66802L11.258 5.57702Z" fill="black"/>
<path d="M3.54904 3.92603C3.44504 5.30403 5.09604 7.51403 6.73404 7.69603C7.37104 7.76103 8.30704 7.16303 8.25504 6.52603C8.12504 4.73203 5.36904 4.64103 3.54904 3.92603Z" fill="url(#paint0_linear_1_156)"/>
<path d="M0.650024 9.03499C2.44402 11.024 5.66802 11.934 8.00802 10.959C9.95802 10.153 11.232 7.55299 11.232 5.49899C11.232 4.08199 9.81502 2.48299 7.72202 3.14599C6.78602 3.44499 6.07102 4.38099 5.46002 5.23899C4.10802 7.03299 2.91202 8.25498 0.650024 9.03499Z" fill="url(#paint1_linear_1_156)"/>
<path d="M2.00201 5.005C2.11901 6.38301 4.10801 8.30701 5.74601 8.21601C6.38301 8.17701 7.21501 7.43601 7.05901 6.81201C6.64301 5.07001 3.90001 5.421 2.00201 5.005Z" fill="url(#paint2_linear_1_156)"/>
<path d="M6.53904 3.91302C7.11104 3.96502 8.11204 4.14702 8.90504 4.19902C9.55504 4.23802 10.322 4.22503 10.855 4.21203C11.245 4.87502 11.297 5.38202 11.18 6.21402C10.036 6.40902 9.17804 6.25302 8.24204 5.95402C7.39704 5.68102 6.55204 5.27802 5.94104 4.58902C6.21404 4.19902 6.30504 4.12102 6.53904 3.91302Z" fill="#D40000"/>
<path d="M10.7625 5.54954C10.6469 5.85266 10.2695 5.95159 9.88685 5.79027C9.50417 5.62896 9.30397 5.2631 9.41182 4.98019C9.51966 4.69728 9.90474 4.57815 10.2874 4.73946C10.6553 4.87108 10.878 5.24642 10.7625 5.54954Z" fill="white"/>
<path d="M10.7252 5.51034C10.6404 5.73263 10.3685 5.8291 10.0984 5.71523C9.82824 5.60136 9.69498 5.33409 9.77971 5.1118C9.86445 4.88951 10.1364 4.79304 10.4065 4.90691C10.6541 5.01129 10.8099 5.28805 10.7252 5.51034Z" fill="#1A1A1A"/>
<path d="M10.6073 5.20265C10.5765 5.28348 10.4858 5.31563 10.3958 5.27768C10.3058 5.23972 10.2613 5.15063 10.2921 5.0698C10.323 4.98897 10.4136 4.95681 10.5036 4.99477C10.5937 5.03272 10.6304 5.14202 10.6073 5.20265Z" fill="white"/>
<path d="M10.712 5.12198C10.569 5.03098 10.452 4.91398 10.309 4.82298C10.166 4.73198 10.036 4.64098 9.88002 4.57598C9.81502 4.54998 9.75002 4.52398 9.67202 4.51098C9.62002 4.52398 9.68502 4.48498 9.68502 4.47198C9.73702 4.41998 9.77602 4.36798 9.82802 4.31598C9.89302 4.32898 9.94502 4.35498 9.99702 4.36798C10.153 4.43298 10.296 4.52398 10.439 4.62798C10.582 4.71898 10.712 4.83598 10.855 4.92698C10.894 4.93998 10.894 4.96598 10.868 4.97898C10.829 5.01798 10.764 5.06998 10.712 5.12198Z" fill="#1A1A1A"/>
<path d="M6.65604 4.68003C6.38304 4.66703 6.05804 4.70603 5.85004 4.44603C5.66804 4.23803 5.51204 3.99103 5.42104 3.71803C5.40804 3.52303 5.40804 3.27603 5.22604 3.18503C5.01804 3.05503 4.77104 3.06803 4.53704 3.02903C4.10804 3.00303 3.69204 3.18503 3.28904 3.34103C3.09404 3.41903 2.86004 3.40603 2.71704 3.21103C2.61304 3.08103 2.53504 2.92503 2.47004 2.76903C2.36604 2.66503 2.36604 2.50903 2.49604 2.47003C2.57404 2.41803 2.66504 2.35303 2.74304 2.30103C2.87304 2.58703 2.97704 2.93803 3.25004 3.06803C3.53604 3.13303 3.79604 2.95103 4.05604 2.87303C4.43304 2.73003 4.83604 2.70403 5.21304 2.78203C5.43404 2.80803 5.70704 2.89903 5.77204 3.18503C5.79804 3.43203 5.83704 3.67903 5.98004 3.86103C6.12304 4.10803 6.33104 4.35503 6.60404 4.36803C6.69504 4.40703 6.99404 4.32903 6.95504 4.42003C6.85104 4.49803 6.74704 4.58903 6.65604 4.68003Z" fill="#D40000"/>
<path d="M6.47405 4.55C6.27905 4.42 6.03205 4.303 5.94105 4.069C5.88905 3.913 5.82405 3.744 5.79805 3.575C5.77205 3.354 5.79805 3.12 5.78505 2.886C5.82405 2.743 5.73305 2.613 5.57705 2.574C5.38205 2.522 5.18705 2.522 4.99205 2.496C4.81005 2.483 4.60205 2.522 4.45905 2.392C4.35505 2.262 4.30305 2.093 4.25105 1.937C4.23805 1.859 4.34205 1.846 4.39405 1.807C4.48505 1.755 4.56305 1.703 4.65405 1.638C4.66705 1.794 4.74505 1.937 4.79705 2.067C4.87505 2.21 5.05705 2.223 5.21305 2.223C5.44705 2.236 5.68105 2.236 5.91505 2.288C6.05805 2.327 6.22705 2.418 6.21405 2.587C6.22705 2.938 6.16205 3.289 6.29205 3.627C6.34405 3.783 6.39605 3.939 6.52605 4.043C6.63005 4.134 6.74705 4.199 6.86405 4.264C6.77305 4.342 6.65605 4.407 6.55205 4.472C6.51305 4.511 6.48705 4.524 6.47405 4.55Z" fill="#D40000"/>
<defs>
<linearGradient id="paint0_linear_1_156" x1="3.5489" y1="5.80827" x2="8.26262" y2="5.80827" gradientUnits="userSpaceOnUse">
<stop/>
<stop offset="1" stop-color="#6D5656"/>
</linearGradient>
<linearGradient id="paint1_linear_1_156" x1="3.88862" y1="9.90813" x2="14.7374" y2="2.07494" gradientUnits="userSpaceOnUse">
<stop/>
<stop offset="1" stop-color="#6D5656"/>
</linearGradient>
<linearGradient id="paint2_linear_1_156" x1="3.08886" y1="6.93763" x2="6.94496" y2="5.43191" gradientUnits="userSpaceOnUse">
<stop/>
<stop offset="1" stop-color="#6D5656"/>
</linearGradient>
</defs>
</svg>
