<svg width="13" height="13" viewBox="0 0 13 13" fill="none" xmlns="http://www.w3.org/2000/svg">
<path d="M11.9744 10.0546C11.267 10.0367 10.7188 10.1087 10.2591 10.3069C10.1264 10.3608 9.91422 10.3609 9.89653 10.5321C9.96727 10.6041 9.97612 10.7212 10.038 10.8203C10.1442 11.0004 10.3298 11.2436 10.4978 11.3698C10.6834 11.5139 10.8692 11.6579 11.0636 11.784C11.4085 12.0002 11.7976 12.1263 12.1335 12.3425C12.3281 12.4685 12.5225 12.6308 12.717 12.7658C12.8143 12.8378 12.8762 12.955 13 13V12.973C12.9381 12.8919 12.9204 12.7748 12.8585 12.6848C12.7702 12.5947 12.6817 12.5136 12.5932 12.4235C12.3369 12.0723 12.0186 11.766 11.6738 11.5138C11.3908 11.3157 10.7719 11.0455 10.657 10.7122C10.657 10.7122 10.6481 10.7032 10.6393 10.6942C10.8338 10.6762 11.0636 10.6041 11.2494 10.5501C11.55 10.4689 11.824 10.487 12.1335 10.4059C12.275 10.3699 12.4164 10.3249 12.5579 10.2798V10.1988C12.3988 10.0367 12.2838 9.82051 12.1158 9.66737C11.6649 9.27096 11.1697 8.88371 10.657 8.55946C10.3828 8.3793 10.0291 8.26219 9.73737 8.1091C9.63136 8.055 9.45445 8.02803 9.3926 7.93795C9.23339 7.73982 9.14496 7.47863 9.03006 7.24442C8.77372 6.74897 8.52608 6.19957 8.30501 5.6772C8.14594 5.32587 8.04867 4.97455 7.85414 4.65036C6.94344 3.11912 5.95317 2.19138 4.43244 1.2816C4.10526 1.09248 3.71623 1.0114 3.30068 0.912363C3.07971 0.903303 2.8586 0.885338 2.63758 0.876278C2.4961 0.813221 2.35462 0.642116 2.23082 0.561042C1.72694 0.236746 0.427122 -0.46574 0.0557816 0.462004C-0.18297 1.04743 0.409488 1.62386 0.612767 1.92118C0.763194 2.12832 0.95763 2.36248 1.06374 2.59669C1.12564 2.74973 1.14328 2.91198 1.20517 3.07408C1.34671 3.47028 1.47925 3.91174 1.66499 4.28108C1.76226 4.4702 1.86832 4.66833 1.99212 4.83948C2.06286 4.93852 2.18661 4.98361 2.21319 5.14571C2.08944 5.32587 2.08055 5.59612 2.00975 5.82127C1.69147 6.8391 1.81532 8.1001 2.26619 8.84768C2.40762 9.07278 2.74364 9.56833 3.19457 9.37911C3.59249 9.21701 3.50406 8.7036 3.61891 8.25324C3.64554 8.14503 3.62786 8.07307 3.68086 8.00101V8.01907C3.80466 8.2712 3.92841 8.51447 4.04336 8.76665C4.31748 9.20795 4.79488 9.66737 5.19275 9.97365C5.40503 10.1357 5.57299 10.415 5.83827 10.514V10.487H5.82053C5.76747 10.4059 5.68789 10.3699 5.6172 10.3068C5.45808 10.1448 5.28118 9.94658 5.15743 9.76641C4.78614 9.26195 4.45891 8.70354 4.16716 8.12707C4.02573 7.84792 3.90188 7.54164 3.78697 7.26244C3.73387 7.15423 3.73387 6.99219 3.64549 6.93819C3.51285 7.13632 3.31836 7.30748 3.2211 7.55065C3.05319 7.93795 3.03545 8.41533 2.97355 8.91068C2.93818 8.91979 2.95582 8.91068 2.93813 8.9288C2.65527 8.85663 2.558 8.55946 2.45184 8.30723C2.18656 7.66775 2.14234 6.64092 2.3723 5.90235C2.4342 5.71318 2.69948 5.11874 2.59337 4.93857C2.54031 4.76742 2.36341 4.66833 2.26619 4.53325C2.15129 4.3621 2.02744 4.146 1.94791 3.95678C1.73568 3.45237 1.62957 2.89391 1.39971 2.3895C1.2936 2.15529 1.10801 1.91217 0.95763 1.69597C0.789671 1.4528 0.603975 1.2816 0.471335 0.993385C0.427173 0.894347 0.365223 0.732199 0.435965 0.6241C0.45365 0.552034 0.48897 0.525061 0.559762 0.507045C0.674716 0.407903 1.00189 0.534018 1.11675 0.588067C1.44393 0.723087 1.718 0.849306 1.99212 1.03843C2.11587 1.12851 2.24851 1.29966 2.40762 1.34471H2.59332C2.87628 1.40771 3.19452 1.36272 3.4598 1.44374C3.92846 1.59683 4.3528 1.82204 4.73304 2.06526C5.89132 2.81284 6.84612 3.87571 7.49164 5.14571C7.59775 5.3528 7.64191 5.54207 7.73918 5.75817C7.92493 6.19957 8.15479 6.64993 8.34038 7.08227C8.52608 7.50555 8.70288 7.93795 8.96816 8.28927C9.1008 8.47834 9.63125 8.57748 9.87001 8.67657C10.0469 8.75759 10.321 8.82971 10.4801 8.92875C10.7807 9.11782 11.0813 9.33412 11.3643 9.5412C11.5057 9.6493 11.9478 9.87451 11.9744 10.0546Z" fill="#00546B"/>
<path d="M2.95577 2.22729C2.8055 2.22729 2.69943 2.24542 2.59332 2.27239V2.2904H2.61101C2.6818 2.43454 2.8055 2.53363 2.89387 2.65969C2.96466 2.80377 3.02651 2.94795 3.0973 3.09208C3.10609 3.08302 3.11494 3.07407 3.11494 3.07407C3.23878 2.98393 3.30063 2.83985 3.30063 2.62366C3.24758 2.56065 3.23873 2.49759 3.19452 2.43454C3.14152 2.3444 3.02651 2.29941 2.95577 2.22729Z" fill="#00546B"/>
</svg>
