<svg width="14" height="13" viewBox="0 0 14 13" fill="none" xmlns="http://www.w3.org/2000/svg">
<path d="M7.00002 7.6461C7.61757 7.6461 8.1182 7.13297 8.1182 6.49999C8.1182 5.86701 7.61757 5.35388 7.00002 5.35388C6.38246 5.35388 5.88184 5.86701 5.88184 6.49999C5.88184 7.13297 6.38246 7.6461 7.00002 7.6461Z" fill="#61DAFB"/>
<path d="M7 8.84811C10.3137 8.84811 13 7.79682 13 6.49998C13 5.20315 10.3137 4.15186 7 4.15186C3.68629 4.15186 1 5.20315 1 6.49998C1 7.79682 3.68629 8.84811 7 8.84811Z" stroke="#61DAFB"/>
<path d="M5.01601 7.67406C6.67286 10.6155 8.90427 12.4743 9.99999 11.8259C11.0957 11.1775 10.6408 8.26737 8.98398 5.32593C7.32712 2.3845 5.09572 0.525646 3.99999 1.17406C2.90427 1.82248 3.35915 4.73263 5.01601 7.67406Z" stroke="#61DAFB"/>
<path d="M5.01601 5.32595C3.35915 8.26738 2.90427 11.1775 3.99999 11.8259C5.09572 12.4744 7.32712 10.6155 8.98398 7.67408C10.6408 4.73265 11.0957 1.8225 9.99999 1.17408C8.90427 0.525663 6.67286 2.38452 5.01601 5.32595Z" stroke="#61DAFB"/>
</svg>
