<svg width="13" height="13" viewBox="0 0 13 13" fill="none" xmlns="http://www.w3.org/2000/svg">
<g clip-path="url(#clip0_1_142)">
<g clip-path="url(#clip1_1_142)">
<path d="M12.7537 6.21885L10.224 1.28066C10.005 0.851875 9.46637 0.499756 9.02588 0.499756H3.97158C3.53361 0.499756 2.99244 0.851875 2.77345 1.28066L0.246301 6.21885C0.0273152 6.64764 0.0273152 7.34903 0.246301 7.77782L2.77345 12.7188C2.99244 13.1476 3.53109 13.4998 3.97158 13.4998H9.0284C9.46637 13.4998 10.005 13.1476 10.2265 12.7188L12.7537 7.77782C12.9727 7.34903 12.9727 6.64764 12.7537 6.21885ZM5.95253 3.23152C5.95253 2.90779 6.18661 2.64371 6.47356 2.64371C6.76051 2.64371 6.9946 2.90779 6.9946 3.23152V6.74419C6.9946 7.06791 6.76051 7.332 6.47356 7.332C6.18661 7.332 5.95253 7.06791 5.95253 6.74419V3.23152ZM6.47356 10.7311C4.52534 10.7311 2.93958 8.94209 2.93958 6.74419C2.9421 5.48337 3.47068 4.29923 4.36676 3.54388C4.57316 3.37066 4.86263 3.41893 5.01617 3.65179C5.16971 3.88464 5.12692 4.2112 4.92052 4.38442C3.76518 5.35275 3.52354 7.19569 4.38187 8.4991C5.24019 9.80251 6.87378 10.0751 8.02912 9.10679C8.69111 8.55305 9.08126 7.6756 9.08126 6.74419C9.07874 5.80994 8.68608 4.93248 8.01905 4.3759C7.81265 4.20552 7.76986 3.87612 7.92088 3.64327C8.07191 3.41042 8.36389 3.36214 8.57029 3.53252C9.47392 4.28503 10.005 5.47769 10.0075 6.74419C10.0075 8.94493 8.42178 10.7311 6.47356 10.7311Z" fill="#6DB33F"/>
</g>
</g>
<defs>
<clipPath id="clip0_1_142">
<rect width="13" height="13" fill="white"/>
</clipPath>
<clipPath id="clip1_1_142">
<rect width="13" height="13" fill="white" transform="translate(0 0.499756)"/>
</clipPath>
</defs>
</svg>
