<svg width="13" height="14" viewBox="0 0 13 14" fill="none" xmlns="http://www.w3.org/2000/svg">
<path d="M11.1529 1.61884L6.4962 0.499756L1.84708 1.61884V5.20034H4.31545C4.29377 5.37191 4.29377 5.54552 4.31545 5.71709H1.84708V7.39951C1.84708 11.261 6.49674 13.4998 6.49674 13.4998C6.49674 13.4998 11.1453 11.261 11.1453 7.40167V5.71871H8.68345C8.70627 5.54722 8.70627 5.37346 8.68345 5.20196H11.1524L11.1529 1.61884ZM6.49999 7.14167H6.49674C6.05025 7.14124 5.6222 6.96351 5.30671 6.64757C4.99122 6.33162 4.81411 5.90331 4.81433 5.45682C4.81454 5.01032 4.99206 4.58219 5.30786 4.26655C5.62365 3.9509 6.05187 3.77359 6.49837 3.77359C6.94486 3.77359 7.37308 3.9509 7.68888 4.26655C8.00467 4.58219 8.18219 5.01032 8.18241 5.45682C8.18263 5.90331 8.00552 6.33162 7.69003 6.64757C7.37454 6.96351 6.94649 7.14124 6.49999 7.14167ZM6.49674 4.66138C6.39876 4.66086 6.30346 4.69339 6.22626 4.75373C6.14905 4.81406 6.09445 4.89867 6.07128 4.99387C6.0481 5.08908 6.05771 5.18931 6.09855 5.27838C6.13938 5.36745 6.20907 5.44015 6.29633 5.48471V5.59738L6.42524 5.72576V5.81188L6.51137 5.89801V5.98413L6.43553 6.05996L6.51679 6.19321V6.27934L6.43012 6.38171L6.55091 6.50196L6.68416 6.36871V5.49284C6.77502 5.45126 6.84882 5.3797 6.89318 5.29016C6.93753 5.20062 6.94975 5.09855 6.92778 5.00107C6.9058 4.9036 6.85098 4.81664 6.7725 4.75479C6.69402 4.69294 6.59666 4.65996 6.49674 4.66138ZM6.49674 5.11421C6.46469 5.11432 6.43332 5.10491 6.40662 5.08718C6.37991 5.06945 6.35907 5.0442 6.34673 5.01461C6.33439 4.98503 6.3311 4.95245 6.33729 4.92099C6.34348 4.88954 6.35886 4.86063 6.38149 4.83793C6.40412 4.81522 6.43297 4.79974 6.46441 4.79345C6.49584 4.78716 6.52843 4.79033 6.55805 4.80257C6.58768 4.81482 6.61301 4.83558 6.63083 4.86222C6.64865 4.88887 6.65816 4.9202 6.65816 4.95226C6.65823 4.97353 6.65411 4.9946 6.64604 5.01428C6.63797 5.03395 6.6261 5.05185 6.61111 5.06694C6.59612 5.08203 6.5783 5.09402 6.55868 5.10222C6.53906 5.11043 6.51801 5.11469 6.49674 5.11476V5.11421Z" fill="#6DB33F"/>
</svg>
