<svg width="13" height="13" viewBox="0 0 13 13" fill="none" xmlns="http://www.w3.org/2000/svg">
<g clip-path="url(#clip0_1_208)">
<path d="M0 0.499756H13V13.4998H0V0.499756Z" fill="#017ACB"/>
<path d="M5.84594 4.08899H6.46953V5.16556H4.78359V9.95524L4.7389 9.96743C4.67797 9.98368 3.87562 9.98368 3.70296 9.9654L3.56484 9.95321V5.16556H1.8789V4.08899L2.41312 4.0829C2.70562 4.07884 3.45718 4.07884 4.08281 4.0829C4.70843 4.08696 5.50062 4.08899 5.84594 4.08899ZM10.6052 9.44743C10.3573 9.70946 10.0913 9.85571 9.64844 9.97556C9.45547 10.0284 9.42297 10.0304 8.98829 10.0284C8.5536 10.0263 8.51907 10.0263 8.30782 9.97149C7.76141 9.83134 7.32063 9.55712 7.02 9.16915C6.93469 9.05946 6.79453 8.83196 6.79453 8.80352C6.79453 8.7954 6.81484 8.77712 6.84125 8.76493C6.86766 8.75274 6.9225 8.71821 6.96719 8.69181C7.01188 8.6654 7.09313 8.61665 7.14797 8.58821C7.20281 8.55977 7.36125 8.46634 7.49938 8.38306C7.6375 8.29978 7.76344 8.23274 7.77766 8.23274C7.79188 8.23274 7.81828 8.26118 7.8386 8.29571C7.96047 8.50087 8.24485 8.7629 8.44594 8.85227C8.56985 8.90509 8.84407 8.96399 8.9761 8.96399C9.09797 8.96399 9.32141 8.91118 9.44126 8.85634C9.56922 8.79743 9.63422 8.73852 9.71141 8.62071C9.76422 8.53743 9.77032 8.51509 9.76829 8.35665C9.76829 8.2104 9.76016 8.16978 9.71954 8.10274C9.60579 7.91587 9.45141 7.81837 8.82579 7.54212C8.17985 7.25571 7.88938 7.08509 7.65375 6.85556C7.47906 6.68493 7.44453 6.63821 7.33485 6.42493C7.19266 6.15071 7.17438 6.06134 7.17235 5.65306C7.17031 5.36665 7.17641 5.27321 7.20688 5.17571C7.24953 5.02946 7.38766 4.74712 7.45063 4.67602C7.58063 4.52368 7.62735 4.47696 7.71875 4.40181C7.995 4.17431 8.42563 4.02399 8.83797 4.00978C8.88469 4.00978 9.03907 4.0179 9.18329 4.02806C9.59766 4.06259 9.88001 4.16415 10.1522 4.38149C10.3574 4.54399 10.6681 4.92587 10.6377 4.97665C10.6174 5.00712 9.80688 5.54743 9.75407 5.56368C9.72157 5.57384 9.69922 5.56165 9.65454 5.50884C9.37829 5.17774 9.26657 5.10665 8.99844 5.0904C8.8075 5.07821 8.70594 5.10056 8.57797 5.18587C8.44391 5.27524 8.37891 5.41134 8.37891 5.60024C8.38094 5.87649 8.48657 6.00649 8.87657 6.19946C9.12844 6.32337 9.34375 6.42493 9.36 6.42493C9.38438 6.42493 9.90641 6.68493 10.0425 6.76618C10.6763 7.1379 10.9342 7.51977 11.0013 8.1779C11.05 8.67352 10.9099 9.12649 10.6052 9.44743Z" fill="white"/>
</g>
<defs>
<clipPath id="clip0_1_208">
<rect width="13" height="13" fill="white"/>
</clipPath>
</defs>
</svg>
