<svg width="13" height="13" viewBox="0 0 13 13" fill="none" xmlns="http://www.w3.org/2000/svg">
<g clip-path="url(#clip0_1_238)">
<path d="M2.70827 0C1.2157 0 0 1.2157 0 2.70827C0 4.01538 0.932445 5.11032 2.16673 5.36209V9.20827C2.16673 10.4037 3.14986 11.375 4.33327 11.375H4.35307C4.4853 12.2914 5.27729 13 6.22923 13C7.27309 13 8.125 12.1481 8.125 11.1042C8.125 10.0604 7.27309 9.20827 6.22923 9.20827C5.27739 9.20827 4.48541 9.91687 4.35307 10.8333H4.33327C3.44591 10.8333 2.70827 10.1069 2.70827 9.20827V6.47755C2.88354 6.6564 3.09278 6.79843 3.32369 6.89531C3.5546 6.99219 3.80254 7.04197 4.05295 7.04173H4.35307C4.48541 7.95813 5.27729 8.66673 6.22923 8.66673C7.18108 8.66673 7.97296 7.95813 8.10509 7.04173H9.22807C9.36041 7.95813 10.1523 8.66673 11.1042 8.66673C12.1481 8.66673 13 7.81462 13 6.77077C13 5.72691 12.1481 4.875 11.1042 4.875C10.1523 4.875 9.3603 5.5836 9.22807 6.5H8.1052C7.97306 5.5836 7.18118 4.875 6.22923 4.875C5.27729 4.875 4.4853 5.5836 4.35307 6.5H4.05295C3.3996 6.5 2.85523 6.03393 2.73386 5.41612C4.21464 5.40231 5.41673 4.1923 5.41673 2.70827C5.41673 1.2157 4.20083 0 2.70827 0ZM2.70827 0.541734C2.99295 0.541172 3.27494 0.596826 3.53806 0.705503C3.80118 0.81418 4.04025 0.973741 4.24156 1.17503C4.44287 1.37632 4.60245 1.61538 4.71115 1.87849C4.81985 2.1416 4.87554 2.42359 4.875 2.70827C4.87554 2.99296 4.81986 3.27495 4.71116 3.53807C4.60246 3.80119 4.44288 4.04027 4.24157 4.24157C4.04027 4.44288 3.80119 4.60246 3.53807 4.71116C3.27495 4.81986 2.99296 4.87554 2.70827 4.875C2.42359 4.87554 2.1416 4.81985 1.87849 4.71115C1.61538 4.60245 1.37632 4.44287 1.17503 4.24156C0.973741 4.04025 0.81418 3.80118 0.705503 3.53806C0.596826 3.27494 0.541172 2.99295 0.541734 2.70827C0.541172 2.42359 0.596828 2.14161 0.705507 1.87851C0.814186 1.6154 0.97375 1.37634 1.17504 1.17504C1.37634 0.97375 1.6154 0.814186 1.87851 0.705507C2.14161 0.596828 2.42359 0.541172 2.70827 0.541734ZM2.17862 1.30762C1.89617 1.30904 1.625 1.53593 1.625 1.84498V3.57591C1.625 3.98653 2.10326 4.25262 2.45223 4.0363L3.83693 3.17759C4.16772 2.97243 4.16945 2.46645 3.84018 2.25895L2.45537 1.38653C2.37261 1.33422 2.27653 1.30682 2.17862 1.30762ZM2.16673 1.84498L3.55154 2.7172L2.16673 3.57591V1.84498ZM6.22923 5.41673C6.40721 5.41617 6.58353 5.45081 6.74807 5.51866C6.9126 5.5865 7.06209 5.68622 7.18793 5.81207C7.31378 5.93791 7.4135 6.0874 7.48134 6.25193C7.54919 6.41647 7.58383 6.59279 7.58327 6.77077C7.58382 6.94874 7.54917 7.12507 7.48132 7.28961C7.41347 7.45415 7.31376 7.60365 7.18792 7.72951C7.06208 7.85537 6.91259 7.9551 6.74806 8.02298C6.58354 8.09085 6.40721 8.12552 6.22923 8.125C6.05124 8.12554 5.8749 8.09087 5.71036 8.02301C5.54581 7.95514 5.39631 7.85541 5.27045 7.72955C5.14459 7.60369 5.04486 7.45419 4.97699 7.28964C4.90913 7.1251 4.87446 6.94876 4.875 6.77077C4.87448 6.59279 4.90915 6.41646 4.97702 6.25194C5.0449 6.08741 5.14463 5.93792 5.27049 5.81208C5.39635 5.68624 5.54585 5.58653 5.71039 5.51868C5.87493 5.45083 6.05126 5.41618 6.22923 5.41673ZM11.1042 5.41673C11.2822 5.41617 11.4585 5.45081 11.6231 5.51866C11.7876 5.5865 11.9371 5.68622 12.0629 5.81207C12.1888 5.93791 12.2885 6.0874 12.3563 6.25193C12.4242 6.41647 12.4588 6.59279 12.4583 6.77077C12.4588 6.94874 12.4242 7.12507 12.3563 7.28961C12.2885 7.45415 12.1888 7.60365 12.0629 7.72951C11.9371 7.85537 11.7876 7.9551 11.6231 8.02298C11.4585 8.09085 11.2822 8.12552 11.1042 8.125C10.9262 8.12554 10.7499 8.09087 10.5854 8.02301C10.4208 7.95514 10.2713 7.85541 10.1454 7.72955C10.0196 7.60369 9.91986 7.45419 9.85199 7.28964C9.78413 7.1251 9.74946 6.94876 9.75 6.77077C9.74948 6.59279 9.78415 6.41646 9.85202 6.25194C9.9199 6.08741 10.0196 5.93792 10.1455 5.81208C10.2714 5.68624 10.4209 5.58653 10.5854 5.51868C10.7499 5.45083 10.9263 5.41618 11.1042 5.41673ZM6.78092 6.1227C6.74534 6.12266 6.7101 6.12964 6.67722 6.14324C6.64433 6.15683 6.61445 6.17677 6.58927 6.20191L5.94943 6.84115L5.73686 6.62949C5.68598 6.5788 5.61706 6.55038 5.54524 6.5505C5.47342 6.55061 5.40458 6.57925 5.35387 6.6301C5.32876 6.65531 5.30887 6.68521 5.29533 6.71811C5.28178 6.751 5.27485 6.78624 5.27492 6.82182C5.275 6.85739 5.28208 6.8926 5.29577 6.92544C5.30945 6.95828 5.32947 6.9881 5.35468 7.0132L5.75829 7.41538C5.80908 7.46599 5.87786 7.4944 5.94955 7.49438C6.02125 7.49436 6.09001 7.46592 6.14077 7.41528L6.97206 6.58511C6.99723 6.55997 7.0172 6.53012 7.03084 6.49726C7.04447 6.4644 7.0515 6.42918 7.05151 6.3936C7.05153 6.35803 7.04454 6.3228 7.03095 6.28993C7.01735 6.25705 6.99741 6.22718 6.97227 6.20202C6.9215 6.15131 6.85268 6.12271 6.78092 6.1227ZM11.6559 6.1227C11.6203 6.12266 11.5851 6.12964 11.5522 6.14324C11.5193 6.15683 11.4894 6.17677 11.4643 6.20191L10.8244 6.84115L10.6119 6.62949C10.561 6.5788 10.4921 6.55038 10.4202 6.5505C10.3484 6.55061 10.2796 6.57925 10.2289 6.6301C10.2038 6.65531 10.1839 6.68521 10.1703 6.71811C10.1568 6.751 10.1498 6.78624 10.1499 6.82182C10.15 6.85739 10.1571 6.8926 10.1708 6.92544C10.1845 6.95828 10.2045 6.9881 10.2297 7.0132L10.6333 7.41538C10.6841 7.46599 10.7529 7.4944 10.8246 7.49438C10.8962 7.49436 10.965 7.46592 11.0158 7.41528L11.8471 6.58511C11.8722 6.55997 11.8922 6.53012 11.9058 6.49726C11.9195 6.4644 11.9265 6.42918 11.9265 6.3936C11.9265 6.35803 11.9195 6.3228 11.9059 6.28993C11.8923 6.25705 11.8724 6.22718 11.8473 6.20202C11.7965 6.15131 11.7277 6.12271 11.6559 6.1227ZM6.22923 9.75C6.40721 9.74948 6.58354 9.78415 6.74806 9.85202C6.91259 9.9199 7.06208 10.0196 7.18792 10.1455C7.31376 10.2714 7.41347 10.4209 7.48132 10.5854C7.54917 10.7499 7.58382 10.9263 7.58327 11.1042C7.58383 11.2822 7.54919 11.4585 7.48134 11.6231C7.4135 11.7876 7.31378 11.9371 7.18793 12.0629C7.06209 12.1888 6.9126 12.2885 6.74807 12.3563C6.58353 12.4242 6.40721 12.4588 6.22923 12.4583C6.05126 12.4588 5.87493 12.4242 5.71039 12.3563C5.54585 12.2885 5.39635 12.1888 5.27049 12.0629C5.14463 11.9371 5.0449 11.7876 4.97702 11.6231C4.90915 11.4585 4.87448 11.2822 4.875 11.1042C4.87446 10.9262 4.90913 10.7499 4.97699 10.5854C5.04486 10.4208 5.14459 10.2713 5.27045 10.1454C5.39631 10.0196 5.54581 9.91986 5.71036 9.85199C5.8749 9.78413 6.05124 9.74946 6.22923 9.75ZM5.6875 10.698C5.46477 10.698 5.28125 10.8815 5.28125 11.1042C5.28125 11.3272 5.46488 11.5105 5.6875 11.5105C5.91012 11.5105 6.09375 11.3272 6.09375 11.1042C6.09375 10.8815 5.91023 10.698 5.6875 10.698ZM6.77077 10.698C6.54804 10.698 6.36452 10.8815 6.36452 11.1042C6.36452 11.3272 6.54814 11.5105 6.77077 11.5105C6.99339 11.5105 7.17702 11.3272 7.17702 11.1042C7.17702 10.8815 6.99349 10.698 6.77077 10.698ZM5.6875 10.9688C5.76367 10.9688 5.82298 11.0282 5.82298 11.1042C5.82298 11.1807 5.76377 11.2395 5.6875 11.2395C5.61133 11.2395 5.55202 11.1806 5.55202 11.1042C5.55202 11.0281 5.61143 10.9688 5.6875 10.9688ZM6.77077 10.9688C6.84694 10.9688 6.90625 11.0282 6.90625 11.1042C6.90625 11.1807 6.84704 11.2395 6.77077 11.2395C6.69459 11.2395 6.63548 11.1806 6.63548 11.1042C6.63548 11.0281 6.6947 10.9688 6.77077 10.9688Z" fill="#2088FF"/>
<path d="M11.1042 9.20825C10.1513 9.20825 9.35856 9.91848 9.22765 10.8364C9.2187 10.8356 9.20972 10.8352 9.20074 10.8353L8.92652 10.8444C8.85476 10.8468 8.78687 10.8775 8.73777 10.9299C8.68868 10.9823 8.66239 11.0521 8.66469 11.1238C8.66705 11.1956 8.69782 11.2635 8.75023 11.3126C8.80264 11.3617 8.87241 11.388 8.94419 11.3857L9.21841 11.3768C9.2217 11.3767 9.22498 11.3765 9.22826 11.3762C9.361 12.292 10.1527 13 11.1042 13C12.1481 13 13 12.1481 13 11.1042C13 10.0604 12.1481 9.20825 11.1042 9.20825ZM11.1042 9.74999C11.2822 9.74946 11.4585 9.78414 11.6231 9.85201C11.7876 9.91988 11.9371 10.0196 12.0629 10.1455C12.1887 10.2713 12.2885 10.4208 12.3563 10.5854C12.4242 10.7499 12.4588 10.9262 12.4583 11.1042C12.4588 11.2822 12.4242 11.4585 12.3563 11.6231C12.2885 11.7876 12.1888 11.9371 12.0629 12.0629C11.9371 12.1888 11.7876 12.2885 11.6231 12.3563C11.4585 12.4242 11.2822 12.4588 11.1042 12.4583C10.9262 12.4588 10.7499 12.4242 10.5854 12.3563C10.4208 12.2885 10.2713 12.1887 10.1455 12.0629C10.0196 11.9371 9.91988 11.7876 9.85201 11.6231C9.78414 11.4585 9.74946 11.2822 9.74999 11.1042C9.74945 10.9262 9.78411 10.7499 9.85198 10.5853C9.91985 10.4208 10.0196 10.2713 10.1454 10.1454C10.2713 10.0196 10.4208 9.91985 10.5853 9.85198C10.7499 9.78411 10.9262 9.74945 11.1042 9.74999Z" fill="#79B8FF"/>
</g>
<defs>
<clipPath id="clip0_1_238">
<rect width="13" height="13" fill="white"/>
</clipPath>
</defs>
</svg>
