<svg width="13" height="13" viewBox="0 0 13 13" fill="none" xmlns="http://www.w3.org/2000/svg">
<path d="M12.9656 7.78728C12.8875 7.55774 12.6828 7.39787 12.4181 7.35951C12.2933 7.34144 12.1503 7.34914 11.9812 7.38296C11.6863 7.44196 11.4676 7.46443 11.308 7.46877C11.9105 6.48204 12.4005 5.35682 12.6825 4.2976C13.1386 2.58488 12.8949 1.80463 12.6101 1.45171C11.8564 0.51756 10.7567 0.015727 9.43006 0.000371768C8.72235 -0.00802175 8.10108 0.127509 7.77698 0.224972C7.47523 0.173328 7.15077 0.144493 6.81033 0.139161C6.17215 0.129286 5.6083 0.264224 5.1265 0.541556C4.85977 0.454066 4.43167 0.330731 3.9373 0.252029C2.77457 0.066878 1.83744 0.211148 1.15198 0.680839C0.32195 1.24952 -0.0628274 2.23759 0.00833534 3.61758C0.0309364 4.05572 0.28362 5.38881 0.68148 6.65307C0.910137 7.37975 1.15396 7.9832 1.40619 8.44681C1.76389 9.10422 2.14663 9.49136 2.5763 9.6304C2.81712 9.70821 3.25469 9.76272 3.7149 9.39094C3.77324 9.45947 3.85107 9.52755 3.95435 9.5908C4.08553 9.67103 4.24593 9.7366 4.40612 9.77546C4.98341 9.91543 5.52416 9.88043 5.98549 9.68422C5.98834 9.76381 5.99053 9.83984 5.99236 9.90551C5.99542 10.012 5.99847 10.1164 6.00249 10.2141C6.02983 10.8744 6.07615 11.3879 6.21339 11.7471C6.22092 11.7668 6.23105 11.797 6.24174 11.8289C6.3102 12.0322 6.42469 12.3726 6.71595 12.6392C7.01756 12.9153 7.38238 13 7.71651 13C7.88408 13 8.04397 12.9787 8.18421 12.9495C8.68408 12.8456 9.2518 12.6873 9.66249 12.1201C10.0508 11.5839 10.2395 10.7763 10.2737 9.50381C10.2781 9.46781 10.2822 9.43345 10.2861 9.40071L10.2942 9.33347L10.3857 9.34127L10.4093 9.3428C10.9184 9.36531 11.541 9.26059 11.9233 9.08833C12.2254 8.95235 13.1935 8.45659 12.9656 7.78728Z" fill="black"/>
<path d="M12.0951 7.91743C10.5812 8.22034 10.4771 7.7232 10.4771 7.7232C12.0755 5.42273 12.7437 2.50262 12.1671 1.78794C10.594 -0.161582 7.87091 0.760422 7.82545 0.784319L7.81084 0.786886C7.51173 0.72665 7.17704 0.690805 6.80082 0.684831C6.11586 0.673969 5.59624 0.859021 5.20195 1.14904C5.20195 1.14904 0.344247 -0.792035 0.570207 3.59027C0.618259 4.52255 1.94785 10.6444 3.53369 8.79535C4.11333 8.11917 4.67342 7.54748 4.67342 7.54748C4.95155 7.7267 5.28456 7.81814 5.63366 7.78531L5.66079 7.76299C5.65234 7.84693 5.65621 7.92904 5.67163 8.02625C5.26308 8.46899 5.38316 8.5467 4.56647 8.70978C3.74005 8.87499 4.22552 9.16906 4.54249 9.24598C4.92676 9.33915 5.81574 9.47117 6.4164 8.65557L6.39247 8.74864C6.55251 8.87301 6.66491 9.55753 6.64607 10.1781C6.62724 10.7986 6.61466 11.2247 6.74075 11.5575C6.86694 11.8902 6.99262 12.639 8.06627 12.4159C8.96334 12.2294 9.42824 11.7462 9.49294 10.9401C9.5388 10.3671 9.6427 10.4518 9.64921 9.93943L9.73254 9.69691C9.8286 8.92011 9.74781 8.66949 10.3005 8.78606L10.4349 8.79752C10.8416 8.81544 11.374 8.73402 11.6865 8.59316C12.3594 8.2903 12.7584 7.78457 12.095 7.91743H12.0951Z" fill="#336791"/>
<path d="M5.48629 4.00717C5.34987 3.98875 5.22632 4.00578 5.16381 4.0517C5.12869 4.07752 5.1178 4.10744 5.11485 4.12803C5.10701 4.18259 5.14641 4.24292 5.17064 4.27403C5.23915 4.36211 5.33923 4.42264 5.43828 4.43597C5.45264 4.43795 5.46694 4.43884 5.48115 4.43884C5.64633 4.43884 5.79654 4.31407 5.80978 4.22199C5.82632 4.10665 5.65371 4.02978 5.48629 4.00722V4.00717ZM10.0057 4.01082C9.99265 3.92042 9.82681 3.89464 9.66941 3.91588C9.51223 3.93711 9.35982 4.00593 9.37255 4.09653C9.38273 4.16699 9.51391 4.28726 9.66916 4.28726C9.68229 4.28726 9.69553 4.28642 9.70887 4.28459C9.8125 4.27067 9.88855 4.20683 9.9247 4.17005C9.97967 4.11396 10.0115 4.05145 10.0057 4.01082Z" fill="white"/>
<path d="M12.5988 7.88305C12.5411 7.71375 12.3553 7.65929 12.0466 7.72111C11.1301 7.90458 10.8019 7.77749 10.6941 7.70052C11.4065 6.64787 11.9926 5.37541 12.3087 4.18822C12.4585 3.62585 12.5412 3.10358 12.548 2.67788C12.5554 2.21065 12.4734 1.86731 12.3042 1.65757C11.622 0.812044 10.6207 0.358497 9.4087 0.346054C8.57547 0.33697 7.87147 0.543796 7.735 0.601958C7.4476 0.532638 7.13429 0.490077 6.79319 0.484646C6.16769 0.474821 5.62699 0.620079 5.17935 0.916173C4.9849 0.845963 4.48238 0.678636 3.86782 0.582604C2.80537 0.416708 1.96109 0.542414 1.35859 0.956412C0.639686 1.45045 0.307796 2.33354 0.372087 3.58112C0.393721 4.00085 0.640297 5.29207 1.0294 6.52863C1.54159 8.15619 2.09837 9.07755 2.68417 9.2671C2.75273 9.28927 2.83179 9.30477 2.91898 9.30477C3.13268 9.30477 3.39468 9.21135 3.66726 8.89349C3.99974 8.50662 4.34367 8.12915 4.69862 7.76154C4.9289 7.88142 5.18189 7.94837 5.44063 7.95509C5.44114 7.96165 5.4418 7.96822 5.44242 7.97474C5.39788 8.02625 5.35426 8.07852 5.31159 8.1315C5.13231 8.35225 5.095 8.39822 4.51791 8.51346C4.35375 8.54634 3.91776 8.63348 3.91135 8.92992C3.90442 9.25381 4.42674 9.38984 4.48625 9.40426C4.69363 9.45462 4.89342 9.47945 5.08395 9.47945C5.54733 9.47945 5.95511 9.33173 6.281 9.0459C6.27097 10.2006 6.3206 11.3383 6.46354 11.685C6.58061 11.9688 6.86659 12.6623 7.76992 12.6623C7.90247 12.6623 8.04836 12.6473 8.20886 12.6139C9.15164 12.4179 9.56105 12.0138 9.71941 11.1227C9.80417 10.6465 9.9496 9.50937 10.018 8.89941C10.1624 8.94311 10.3482 8.9631 10.5491 8.96305C10.9682 8.96305 11.4517 8.8767 11.7549 8.74018C12.0956 8.58673 12.7103 8.2102 12.5988 7.88305ZM10.3537 3.76133C10.3506 3.9414 10.325 4.10488 10.2979 4.27551C10.2688 4.45903 10.2386 4.64878 10.231 4.87911C10.2236 5.10326 10.2524 5.33631 10.2803 5.5617C10.3367 6.01692 10.3946 6.48558 10.1706 6.94801C10.1334 6.88406 10.1002 6.81795 10.0713 6.75007C10.0435 6.6846 9.98299 6.57944 9.89926 6.43388C9.57353 5.86727 8.81074 4.5404 9.20122 3.99897C9.31753 3.83781 9.61272 3.67211 10.3537 3.76133ZM9.45553 0.710679C10.5415 0.733934 11.4005 1.12799 12.0087 1.88182C12.4752 2.46004 11.9616 5.09102 10.4745 7.36078C10.4596 7.34233 10.4445 7.32395 10.4294 7.30563L10.4106 7.28282C10.7948 6.66727 10.7197 6.05825 10.6528 5.5183C10.6253 5.29671 10.5994 5.08741 10.606 4.89081C10.6128 4.68245 10.6412 4.50372 10.6687 4.33091C10.7025 4.11796 10.7368 3.8976 10.7274 3.63785C10.7344 3.6106 10.7373 3.5784 10.7336 3.54019C10.7094 3.2911 10.4162 2.5456 9.81857 1.87086C9.49167 1.50179 9.01496 1.08878 8.36406 0.810217C8.64403 0.753931 9.02688 0.701446 9.45553 0.710679ZM3.37879 8.66084C3.07846 9.01109 2.87108 8.94394 2.80287 8.92192C2.35849 8.77815 1.84284 7.8671 1.38822 6.42243C0.994839 5.17239 0.764959 3.91538 0.746736 3.5629C0.689317 2.44814 0.967911 1.67125 1.57483 1.25374C2.56256 0.574358 4.18648 0.981 4.83901 1.18723C4.82964 1.19622 4.81987 1.20461 4.8106 1.21375C3.7398 2.26264 3.7652 4.05471 3.76785 4.16427C3.76775 4.20654 3.77141 4.26638 3.7764 4.34868C3.79483 4.65011 3.82914 5.21109 3.73751 5.84639C3.6524 6.43675 3.84003 7.01457 4.25219 7.43173C4.29449 7.47446 4.33895 7.51512 4.38541 7.55358C4.20195 7.74416 3.80323 8.16562 3.37879 8.66084ZM4.52305 7.17997C4.19086 6.84374 4.03998 6.37607 4.10905 5.89675C4.20577 5.22566 4.17009 4.64117 4.1509 4.32716C4.1482 4.28321 4.14581 4.2447 4.14443 4.21434C4.30086 4.07979 5.02577 3.70307 5.54275 3.81797C5.77863 3.87035 5.92238 4.02617 5.98214 4.29417C6.29143 5.68172 6.02307 6.26004 5.80744 6.72479C5.763 6.82053 5.72101 6.91103 5.68517 7.00464L5.65738 7.07703C5.58703 7.26 5.52157 7.43015 5.481 7.5917C5.12783 7.59071 4.78429 7.44437 4.52305 7.17992V7.17997ZM4.57726 9.05123C4.47413 9.02625 4.38139 8.98285 4.32697 8.94686C4.37243 8.92612 4.45331 8.89788 4.5936 8.86983C5.2725 8.7343 5.37736 8.63862 5.60632 8.35664C5.65881 8.29197 5.71831 8.21869 5.80072 8.12943L5.80083 8.12933C5.92355 7.99602 5.9797 8.01863 6.08151 8.05961C6.16402 8.09269 6.2444 8.19302 6.27698 8.30342C6.2924 8.35556 6.30971 8.4545 6.25305 8.53153C5.77476 9.18109 5.0778 9.17274 4.57726 9.05123ZM8.13026 12.2582C7.29973 12.4308 7.00566 12.0197 6.81187 11.5498C6.6868 11.2465 6.62531 9.87854 6.66893 8.36785C6.66949 8.34776 6.66654 8.32835 6.66084 8.31008C6.65574 8.27401 6.64798 8.23834 6.63763 8.20334C6.57277 7.98353 6.41472 7.79966 6.2251 7.72343C6.14977 7.69316 6.01151 7.63762 5.84537 7.67884C5.8808 7.53724 5.94224 7.37732 6.00887 7.20416L6.03681 7.13134C6.06827 7.04923 6.10777 6.96416 6.14951 6.8741C6.37517 6.38787 6.6842 5.72187 6.3488 4.2173C6.22317 3.65375 5.80363 3.37854 5.16764 3.44248C4.78637 3.48074 4.43753 3.62995 4.26355 3.71551C4.22613 3.73388 4.19192 3.75166 4.15996 3.76894C4.20852 3.20114 4.39197 2.14 5.07825 1.46862C5.51037 1.04598 6.08583 0.837224 6.78698 0.848481C8.16849 0.870403 9.05441 1.55808 9.55439 2.13116C9.98523 2.62495 10.2185 3.12239 10.3116 3.39069C9.61145 3.32161 9.13525 3.45566 8.89387 3.79041C8.3687 4.51858 9.18116 5.93185 9.57164 6.61109C9.64326 6.73556 9.70506 6.84314 9.72451 6.88886C9.85166 7.18777 10.0163 7.38734 10.1365 7.53299C10.1733 7.57763 10.2091 7.62093 10.2362 7.65875C10.0242 7.71804 9.64326 7.85506 9.67798 8.53992C9.64998 8.88356 9.4509 10.4925 9.34976 11.0609C9.21624 11.8119 8.93133 12.0916 8.13026 12.2582V12.2582ZM11.597 8.41017C11.3801 8.50778 11.0172 8.581 10.6725 8.59675C10.2918 8.61403 10.0979 8.55537 10.0523 8.51928C10.0309 8.09249 10.1947 8.04791 10.368 8.00071C10.3953 7.9933 10.4218 7.98605 10.4475 7.97736C10.4634 7.98995 10.4809 8.00244 10.5 8.01468C10.806 8.2106 11.3519 8.23173 12.1225 8.07744L12.131 8.07581C12.027 8.17006 11.8492 8.29656 11.597 8.41017Z" fill="white"/>
</svg>
